<?xml version="1.0" encoding="utf-8"?>
<!-- Generator: Adobe Illustrator 15.0.0, SVG Export Plug-In . SVG Version: 6.00 Build 0)  -->
<!DOCTYPE svg PUBLIC "-//W3C//DTD SVG 1.1//EN" "http://www.w3.org/Graphics/SVG/1.1/DTD/svg11.dtd">
<svg version="1.1" id="Layer_1" xmlns="http://www.w3.org/2000/svg" xmlns:xlink="http://www.w3.org/1999/xlink" x="0px" y="0px"
	 width="122px" height="177px" viewBox="0 0 122 177" enable-background="new 0 0 122 177" xml:space="preserve">
<g>
	<path fill="#FFFFFF" d="M36.929,153.892v3.005h2.94C38.73,155.659,37.894,154.806,36.929,153.892z"/>
	<path fill="#FFFFFF" d="M36.245,157.581v-0.362v-0.322v-3.212c-0.04-0.004-0.079-0.008-0.117-0.008h-7.53
		c-0.399,0-0.725,0.326-0.725,0.725v13.846c0,0.398,0.326,0.725,0.725,0.725h10.706c0.399,0,0.725-0.326,0.725-0.725v-10.666H36.245
		z"/>
</g>
<text transform="matrix(1 0 0 1 34 23)" fill="#FFFFFF" font-family="'MyriadPro-Regular'" font-size="12">node_modules</text>
<path fill="#FFFFFF" d="M24.765,14.926h-6.693c-0.514,0-1.261-0.339-1.599-0.725l-0.483-0.554c-0.469-0.534-1.392-0.953-2.102-0.953
	h-3.625c-0.799,0-1.45,0.65-1.45,1.449V25.3c0,0.8,0.65,1.45,1.45,1.45h14.502c0.8,0,1.45-0.65,1.45-1.45v-8.925
	C26.215,15.576,25.565,14.926,24.765,14.926z"/>
<path fill="#FFFFFF" d="M24.765,33.426h-6.693c-0.514,0-1.261-0.339-1.599-0.725l-0.483-0.554c-0.469-0.534-1.392-0.953-2.102-0.953
	h-3.625c-0.799,0-1.45,0.65-1.45,1.449V43.8c0,0.8,0.65,1.45,1.45,1.45h14.502c0.8,0,1.45-0.65,1.45-1.45v-8.925
	C26.215,34.076,25.565,33.426,24.765,33.426z"/>
<path fill="#FFFFFF" d="M24.765,54.176h-6.693c-0.514,0-1.261-0.339-1.599-0.725l-0.483-0.554c-0.469-0.534-1.392-0.953-2.102-0.953
	h-3.625c-0.799,0-1.45,0.65-1.45,1.449V64.55c0,0.8,0.65,1.45,1.45,1.45h14.502c0.8,0,1.45-0.65,1.45-1.45v-8.925
	C26.215,54.826,25.565,54.176,24.765,54.176z"/>
<path fill="#FFFFFF" d="M24.765,75.676h-6.693c-0.514,0-1.261-0.339-1.599-0.725l-0.483-0.554c-0.469-0.534-1.392-0.953-2.102-0.953
	h-3.625c-0.799,0-1.45,0.65-1.45,1.449V86.05c0,0.8,0.65,1.45,1.45,1.45h14.502c0.8,0,1.45-0.65,1.45-1.45v-8.925
	C26.215,76.326,25.565,75.676,24.765,75.676z"/>
<path fill="#FFFFFF" d="M41.202,96.426h-6.693c-0.514,0-1.261-0.339-1.599-0.725l-0.483-0.554c-0.469-0.534-1.392-0.953-2.102-0.953
	H26.7c-0.799,0-1.45,0.65-1.45,1.449V106.8c0,0.8,0.65,1.45,1.45,1.45h14.502c0.8,0,1.45-0.65,1.45-1.45v-8.925
	C42.652,97.076,42.002,96.426,41.202,96.426z"/>
<text transform="matrix(1 0 0 1 33.9829 41.75)" fill="#FFFFFF" font-family="'MyriadPro-Regular'" font-size="12">dist</text>
<text transform="matrix(1 0 0 1 33.9482 63.5)" fill="#FFFFFF" font-family="'MyriadPro-Regular'" font-size="12">test</text>
<text transform="matrix(1 0 0 1 33.9653 84.75)" fill="#FFFFFF" font-family="'MyriadPro-Regular'" font-size="12">src</text>
<text transform="matrix(1 0 0 1 51.4917 106.25)" fill="#FFFFFF" font-family="'MyriadPro-Regular'" font-size="12">images</text>
<path fill="#FFFFFF" d="M41.202,116.176h-6.693c-0.514,0-1.261-0.339-1.599-0.725l-0.483-0.554
	c-0.469-0.534-1.392-0.953-2.102-0.953H26.7c-0.799,0-1.45,0.65-1.45,1.449v11.156c0,0.8,0.65,1.45,1.45,1.45h14.502
	c0.8,0,1.45-0.65,1.45-1.45v-8.925C42.652,116.826,42.002,116.176,41.202,116.176z"/>
<text transform="matrix(1 0 0 1 51.4917 124.25)" fill="#FFFFFF" font-family="'MyriadPro-Regular'" font-size="12">styles</text>
<path fill="#FFFFFF" d="M41.202,135.926h-6.693c-0.514,0-1.261-0.339-1.599-0.725l-0.483-0.554
	c-0.469-0.534-1.392-0.953-2.102-0.953H26.7c-0.799,0-1.45,0.65-1.45,1.449V146.3c0,0.8,0.65,1.45,1.45,1.45h14.502
	c0.8,0,1.45-0.65,1.45-1.45v-8.925C42.652,136.576,42.002,135.926,41.202,135.926z"/>
<text transform="matrix(1 0 0 1 51.4917 146.417)" fill="#FFFFFF" font-family="'MyriadPro-Regular'" font-size="12">scripts</text>
<text transform="matrix(1 0 0 1 50.6587 165.583)" fill="#FFFFFF" font-family="'MyriadPro-Regular'" font-size="12">index.html</text>
</svg>
