<?xml version="1.0" encoding="utf-8"?>
<!-- Generator: Adobe Illustrator 15.0.0, SVG Export Plug-In . SVG Version: 6.00 Build 0)  -->
<!DOCTYPE svg PUBLIC "-//W3C//DTD SVG 1.1//EN" "http://www.w3.org/Graphics/SVG/1.1/DTD/svg11.dtd">
<svg version="1.1" id="Layer_1" xmlns="http://www.w3.org/2000/svg" xmlns:xlink="http://www.w3.org/1999/xlink" x="0px" y="0px"
	 width="77px" height="84px" viewBox="0 0 77 84" enable-background="new 0 0 77 84" xml:space="preserve">
<g id="Head_5_">
	<path fill="#FFFFFF" d="M40.484,21.814c13.479,0,24.443,10.966,24.443,24.444S53.963,70.703,40.484,70.703
		S16.039,59.737,16.039,46.259S27.006,21.814,40.484,21.814 M40.484,15.889c-16.773,0-30.371,13.596-30.371,30.37
		s13.598,30.37,30.371,30.37s30.369-13.596,30.369-30.37S57.258,15.889,40.484,15.889L40.484,15.889z"/>
</g>
<path id="Happy_3_" fill="#FFFFFF" d="M28.417,64.164c1.061-4.771,6.003-8.381,11.937-8.381c5.938,0,10.879,3.611,11.938,8.383"/>
<circle id="Eye_7_" fill="#FFFFFF" cx="31.734" cy="40.403" r="4.831"/>
<circle id="Eye_6_" fill="#FFFFFF" cx="49.233" cy="40.402" r="4.83"/>
<path fill="#FFFFFF" d="M21.656,23c-7.161,0-8.519-11.373-8.519-11.373s-4.938,13.102,1.296,20.014
	c0.115,0.129,0.231,0.25,0.349,0.362"/>
<path fill="#FFFFFF" d="M59,23c7.16,0,8.518-11.373,8.518-11.373s4.938,13.102-1.296,20.014c-0.116,0.129-0.231,0.25-0.349,0.362"/>
</svg>
