<?xml version="1.0" encoding="utf-8"?>
<!-- Generator: Adobe Illustrator 15.0.0, SVG Export Plug-In . SVG Version: 6.00 Build 0)  -->
<!DOCTYPE svg PUBLIC "-//W3C//DTD SVG 1.1//EN" "http://www.w3.org/Graphics/SVG/1.1/DTD/svg11.dtd">
<svg version="1.1" id="Layer_1" xmlns="http://www.w3.org/2000/svg" xmlns:xlink="http://www.w3.org/1999/xlink" x="0px" y="0px"
	 width="622.561px" height="645.84px" viewBox="0 0 622.561 645.84" enable-background="new 0 0 622.561 645.84"
	 xml:space="preserve">
<g id="Background_xA0_Image_1_">
</g>
<path fill="#598527" d="M591.16,121.596c1.97,2.707,3.876,5.477,6.079,7.95c0.368,0.723,0.807,1.376,1.401,1.871
	c2.244,3.292,4.3,6.769,6.549,10.054c0.179,0.678,0.369,1.344,0.936,1.637c3.402,8.132,7.466,15.604,7.716,26.889
	c0,1.247,0,2.494,0,3.741c0,0.779,0,1.559,0,2.338c0,1.248,0,2.495,0,3.742c0,0.312,0,0.624,0,0.935
	c-0.534,0.324-0.088,1.627-0.234,2.338c-1.47,11.857-4.906,21.75-8.885,31.098c-0.565,0.292-0.757,0.959-0.936,1.637
	c-2.318,4.15-5.225,7.713-7.716,11.691c-0.695,0.473-1.165,1.173-1.403,2.104c-1.929,3.136-4.211,5.919-6.312,8.885
	c-0.576,0.446-1.971,1.294-1.17,2.338c-0.042,0.198,0.092,0.22,0.234,0.234c-0.011,0.322,0.108,0.513,0.234,0.702
	c0.179,0.678,0.369,1.344,0.935,1.636c1.254,2.72,2.514,5.437,3.975,7.95c0.492,1.222,0.874,2.554,1.638,3.507
	c-0.066,0.533,0.056,0.878,0.466,0.935c0.652,2.153,1.355,4.257,2.104,6.313c0.183,0.91,0.269,1.915,0.936,2.338
	c2.643,5.698,4.013,12.666,5.611,19.407c-0.004,1.172,0.182,2.159,0.468,3.039c0.136,1.969,0.42,3.79,0.701,5.613
	c0,0.233,0,0.466,0,0.701c0.151,1.018-0.305,2.643,0.234,3.273c0,0.233,0,0.467,0,0.702c0,4.365,0,8.729,0,13.093
	c0,0.39,0,0.78,0,1.169c-0.217,2.168-0.431,5.402-0.701,8.184c0,0.078,0,0.156,0,0.234c-0.372,1.5-0.681,3.062-0.936,4.677
	c0.166,0.866-0.399,1.003-0.234,1.87c-1.096,4.048-2.948,7.34-4.209,11.224c-0.596,0.418-0.955,1.071-0.935,2.104
	c-1.043,2.854-2.995,4.799-4.207,7.483c-0.97,0.588-1.647,1.471-1.873,2.805c-0.112,0.276-0.249,0.531-0.466,0.702
	c-0.687,0.874-1.688,1.43-1.871,2.805c-0.077,0-0.155,0-0.233,0c-0.602,0.804-1.272,1.534-1.637,2.573
	c-1.065,0.805-1.726,2.015-2.339,3.272c-0.012,0.301-0.299,0.325-0.233,0.702c-0.434,0.503-1.013,0.86-1.401,1.402
	c-1.059,0.501-1.444,1.675-2.104,2.573c-0.764,0.561-0.999,1.651-1.871,2.104c-0.541-0.221-1.636,1.006-1.87,1.87
	c-0.078,0-0.156,0-0.234,0c-0.547,0.7-1.492,1.001-2.104,1.639c0.07,0.458-0.314,0.462-0.466,0.7
	c-0.835,0.179-1.229,0.799-1.638,1.402c-0.495,0.673-1.614,0.723-2.104,1.402c-0.706,0.308-1.443,0.584-1.639,1.402
	c-3.12,2.414-7.163,3.904-10.287,6.313c-1.057,0.19-1.814,0.68-2.339,1.402c-0.052,0.183-0.196,0.271-0.466,0.234
	c-0.179-0.313-1.51,0.188-1.639,0.702c-7.016,3.425-16.054,4.833-25.253,6.077c-2.336,0-4.676,0-7.014,0c-0.389,0-0.78,0-1.168,0
	c-1.092,0-2.183,0-3.273,0c-0.701,0-1.402,0-2.105,0c-0.398-0.534-1.784-0.086-2.571-0.232c-10.605-0.608-21.69-3.246-30.864-6.079
	c-3.021-0.935-4.953-2.076-6.079,0.7c-2.787,2.67-5.252,5.663-7.95,8.418c0.11,0.734-0.629,0.618-0.701,1.169
	c-0.003,0.31-0.41,0.215-0.468,0.468c-0.882,0.6-1.433,1.529-2.104,2.337c-1.287,1.128-2.521,2.312-3.507,3.742
	c-0.8,0.604-1.502,1.306-2.104,2.103c-0.876,1.698-2.58,2.565-3.507,4.21c-0.798,0.45-1.226,1.269-1.871,1.87
	c-1.594,1.448-2.97,3.111-4.444,4.677c-0.271,0.664-0.935,0.935-1.169,1.639c-1.304,1.111-2.322,2.508-3.507,3.741
	c-0.689,0.479-1.299,1.039-1.637,1.87c-8.07,9.389-14.997,19.921-21.745,30.63c-0.673,0.497-1.316,1.021-1.403,2.103
	c-1.242,1.876-2.362,3.874-3.507,5.846c-0.583,0.666-1.357,1.138-1.403,2.339c-1.068,1.425-1.974,3.014-2.806,4.677
	c-0.56,0.299-0.952,0.763-0.936,1.637c-0.566,0.447-0.99,1.035-1.169,1.872c-1.968,3.41-3.578,7.176-5.378,10.755
	c-0.46,0.396-0.628,1.087-0.701,1.87c-0.951,2.246-2.209,4.185-3.04,6.548c-0.567,0.367-0.876,0.993-0.935,1.871
	c-0.72,1.541-1.354,3.166-2.104,4.675c-0.318,0.54-0.673,1.043-0.701,1.87c-0.225,0.479-0.478,0.927-0.703,1.404
	c-0.477,0.457-0.697,1.173-0.701,2.104c-1.823,5.737-3.349,11.771-3.976,18.703c-0.476,0.227-0.505,0.9-0.466,1.639
	c0.277,1.992-0.694,2.734-0.468,4.677c-0.01,0.77-0.396,1.163-0.234,2.104c0.154,1.635-0.208,2.752-0.232,4.208
	c-0.536,0.399-0.087,1.784-0.234,2.572c0,0.234,0,0.466,0,0.702c-0.533,0.323-0.087,1.627-0.233,2.339c0,1.012,0,2.026,0,3.038
	c-0.23,0.94-0.286,2.052-0.234,3.273c-0.533,0.869-0.479,2.325-0.466,3.741c0,0.233,0,0.468,0,0.702
	c-0.534,0.323-0.088,1.627-0.234,2.336c0.154,1.873-0.309,4.363,0.234,5.846c0,0.156,0,0.313,0,0.468
	c0.146,0.788-0.303,2.172,0.233,2.573c-0.193,0.66,0.33,0.604,0.232,1.168c0.154,1.717-0.309,4.052,0.234,5.378
	c0,0.548,0,1.092,0,1.638c-0.032,1.201,0.034,2.305,0.468,3.041c-0.021,0.331-0.039,0.662,0.232,0.7c0,0.466,0,0.937,0,1.402
	c-0.031,0.969,0.064,1.806,0.468,2.339c1.023,11.289,3.949,20.68,5.846,31.098c-0.684,0.331-0.742,1.284-1.169,1.871
	c-1.639,1.558-3.353,3.036-4.91,4.675c-15.242,8.921-34.071,14.252-56.351,16.136c-1.717,0.154-4.051-0.31-5.378,0.234
	c-0.936,0-1.871,0-2.807,0c-2.26,0-4.521,0-6.78,0c-0.623,0-1.247,0-1.871,0c-0.403-0.389-2.402-0.389-2.806,0
	c-0.545,0-1.091,0-1.636,0c-1.483-0.544-3.975-0.08-5.846-0.234c-1.325,0-2.65,0-3.975,0c-6.779-0.235-12.402-1.629-17.771-3.274
	c-0.052-0.181-0.196-0.271-0.468-0.234c-3.615-1.604-7.936-2.506-11.457-4.207c-0.078,0-0.156,0-0.234,0
	c-1.01-0.782-2.366-1.218-3.507-1.87c-1.08-0.712-2.289-1.296-3.507-1.871c-5.906-4.616-12.595-8.45-17.536-14.029
	c-1.81-2.399-3.434-4.983-4.911-7.716c-0.266-1.695-0.499-2.309-0.234-4.209c0.156-3.585,1.259-6.225,1.637-9.587
	c0.427-0.897,0.498-2.152,0.468-3.507c0.359-0.889,0.388-2.104,0.467-3.272c0.517-0.03,0.1-0.993,0.234-1.402
	c0.542-1.25,0.081-3.507,0.234-5.144c0.229-0.94,0.286-2.054,0.234-3.274c0.533-0.324,0.086-1.627,0.233-2.337
	c0.544-1.719,0.08-4.441,0.234-6.548c0-0.78,0-1.559,0-2.337c-0.15-0.941,0.305-2.486-0.234-3.04
	c-0.872-8.792-1.796-17.533-4.208-24.785c0.062-0.919-0.091-1.625-0.702-1.87c0.139-0.839-0.271-1.132-0.467-1.637
	c-0.148-0.787-0.166-1.705-0.701-2.104c-1.125-3.006-2.187-6.073-3.274-9.118c-0.082-0.698-0.135-1.424-0.701-1.639
	c-2.373-7.136-6.115-12.901-8.885-19.641c-0.18-0.678-0.37-1.344-0.935-1.637c-3.597-6.847-7.454-13.434-11.925-19.407
	c-0.369-0.721-0.806-1.375-1.403-1.87c-0.338-0.831-0.947-1.391-1.637-1.87c-0.805-0.441-1.061-1.434-1.636-2.104
	c-0.393-0.933-1.118-1.532-1.871-2.104c-1.278-1.841-2.849-3.388-4.209-5.144c-0.498-0.906-1.104-1.703-1.871-2.337
	c-0.751-0.809-1.284-1.834-2.104-2.574c-1.033-1.458-2.059-2.929-3.507-3.974c-0.212-0.413-0.523-0.725-0.936-0.936
	c-1.285-1.677-2.74-3.184-4.209-4.678c-5.912-7.104-11.918-14.113-17.771-21.277c-0.338-0.831-0.947-1.391-1.636-1.87
	c-4.343-5.711-9.215-10.894-13.562-16.601c-0.339-0.832-0.948-1.391-1.638-1.87c-0.804-0.443-1.061-1.434-1.636-2.104
	c-0.338-0.832-0.947-1.392-1.636-1.871c-0.625-0.233-0.772-0.943-1.169-1.402c-0.662-0.896-1.412-1.705-2.104-2.572
	c-0.573-0.604-1.367-2.211-2.572-1.402c-0.56,0.141-1.696-0.295-1.871,0.231c-0.312,0-0.624,0-0.935,0
	c-0.865,0.15-2.33-0.302-2.806,0.234c-0.312,0-0.624,0-0.936,0c-1.096,0.152-2.8-0.305-3.508,0.234c-0.312,0-0.623,0-0.935,0
	c-1.949,0-3.897,0-5.846,0c-2.572,0-5.144,0-7.716,0c-0.39,0-0.779,0-1.169,0c-1.095-0.543-3.192-0.08-4.676-0.234
	c-1.091,0-2.182,0-3.273,0c-3.145,0.263-4.976-0.791-8.183-0.466c-0.479-0.689-2.561,0.223-3.04-0.469
	c-0.324-0.532-1.627-0.087-2.338-0.233c-3.152-0.198-5.77-0.933-8.885-1.169c-5.667-1.269-11.735-2.137-16.602-4.207
	c-0.632-0.458-1.551-0.63-2.572-0.702c-0.96-0.755-3.083-0.348-3.741-1.402c-0.481-0.688-1.866-0.472-2.572-0.936
	c-0.156,0-0.312,0-0.468,0c-0.369-0.878-1.495-0.999-2.572-1.169c-5.965-2.687-11.805-5.497-16.835-9.118
	c-0.688-0.638-1.573-1.077-2.338-1.639c-0.078,0-0.156,0-0.233,0c-0.917-0.953-1.853-1.888-3.274-2.336
	c-0.441-0.729-1.56-0.778-1.87-1.637c-0.937-1.013-1.771-2.128-3.274-2.573c0-0.077,0-0.155,0-0.233
	c-0.325-0.768-0.952-1.231-1.637-1.637c-0.73-0.905-1.524-1.751-2.571-2.339c-0.474-0.54-1.045-0.981-1.403-1.636
	c-0.379-0.712-0.802-1.382-1.637-1.639c-0.273-0.428-0.611-0.792-0.935-1.168c0-0.078,0-0.156,0-0.234
	c-0.351-0.351-0.704-0.698-1.169-0.935c-0.398-0.146-0.385-0.708-0.701-0.936c-0.782-1.245-1.671-2.381-2.807-3.273
	c0-0.078,0-0.156,0-0.234c-0.827-0.652-1.007-1.952-1.871-2.57c-0.2-0.424-0.602-0.646-0.701-1.17
	c-0.751-1.039-1.337-2.249-2.104-3.273c-1.844-2.365-3.095-5.322-4.442-8.184c-0.429-0.662-0.317-1.865-1.169-2.103
	c-0.889-2.854-2.178-5.306-2.806-8.418c0.253-0.422-0.315-2.015-0.701-2.573c0.09-1.886-1.021-2.565-0.702-4.677
	c-0.079-1.167-0.108-2.385-0.467-3.272c0-0.234,0-0.468,0-0.703c0-2.259,0-4.521,0-6.781c0.758-13.425,3.704-24.666,9.118-33.436
	c0.756-0.882,1.261-2.013,1.871-3.04c0.28-0.5,0.441-1.117,0.936-1.403c0.804-0.442,1.061-1.433,1.637-2.104
	c-0.01-0.323,0.11-0.513,0.234-0.702c0.932-1.173,2.221-1.987,2.806-3.507c1.019-1.085,2.106-2.103,3.04-3.274
	c1.069-0.333,1.461-1.344,2.104-2.104c0.24-0.228,0.474-0.462,0.702-0.702c1.116-0.911,2.438-1.614,3.04-3.04
	c2.197-2.167,4.886-3.843,7.248-5.845c1.205-0.51,1.779-1.65,3.04-2.104c1.158-0.947,2.702-1.507,3.975-2.338
	c1.211-0.348,1.954-1.165,3.04-1.637c-0.119-0.816-0.105-1.765-0.468-2.338c-0.774-7.02-2.798-12.79-3.273-20.108
	c-0.149-0.864,0.303-2.33-0.234-2.806c0-0.312,0-0.624,0-0.936c0-2.572,0-5.144,0-7.716c0-0.233,0-0.467,0-0.701
	c0.535-0.4,0.085-1.785,0.234-2.572c0-1.013,0-2.026,0-3.039c0.9-12.662,3.599-23.525,7.248-33.437
	c0.674-0.729,1.208-1.599,1.169-3.04c0.39-0.701,0.906-1.276,0.935-2.338c1.053-0.817,1.304-2.438,1.871-3.741
	c0.025-0.598,0.132-1.114,0.468-1.403c0.669-0.264,0.868-1.002,0.935-1.87c0.588-0.658,0.671-1.823,1.169-2.572
	c0.472-0.384,0.931-0.782,0.935-1.637c0.615-0.32,0.872-0.999,0.935-1.87c0.271-0.04,0.253-0.369,0.233-0.701
	c0.235,0,0.279-0.189,0.468-0.234c0.83-0.886,1.177-2.253,1.871-3.273c-0.268-0.736,0.367-0.568,0.467-0.936
	c1.188-1.697,2.23-3.538,3.274-5.378c0.143-0.014,0.277-0.035,0.234-0.234c0.429-0.661,1.127-1.055,1.169-2.104
	c0.513-1.357,1.615-2.125,2.337-3.273c0.82-0.662,1.53-1.432,1.871-2.572c0.398-0.147,0.385-0.706,0.702-0.935
	c0.792-0.064,0.524-1.19,1.168-1.403c0.653-0.362,0.777-1.25,1.403-1.637c0.803-0.989,1.651-1.934,2.338-3.04
	c0.052-0.181,0.006-0.461,0.233-0.468c0.421,0.03,0.548-0.232,0.468-0.702c0.608,0.141,0.842-0.095,0.701-0.701
	c0.286-0.026,0.554-0.07,0.468-0.468c0.903-0.188,1.121-1.061,1.636-1.637c0.272-0.039,0.253-0.369,0.234-0.702
	c0.8-0.212,0.968-1.058,1.636-1.403c0.309-0.003,0.213-0.41,0.468-0.468c1.631-1.407,3.264-2.814,4.442-4.676
	c0.635-0.067,0.548-0.855,1.169-0.935c1.451-0.73,2.485-1.879,3.507-3.04c0.592-0.578,1.202-1.137,1.871-1.637
	c1.425-0.991,2.737-2.095,3.975-3.273c0.143-0.014,0.277-0.035,0.234-0.234c1.15-0.72,2.489-1.25,3.04-2.572
	c1.279-1.215,2.99-2,4.442-3.04c1.223-0.649,2.52-1.222,3.274-2.338c0.229-0.317,0.788-0.303,0.935-0.702
	c1.187-0.606,2.292-1.292,3.274-2.104c0.299-0.013,0.323-0.3,0.701-0.234c2.009-1.499,4.361-2.654,6.313-4.208
	c0.671-0.343,1.363-0.665,1.872-1.169c0.143-0.324,0.9-0.035,0.935-0.468c0.993-0.254,1.752-0.742,2.338-1.403
	c0.563-0.607,2.042-0.295,2.104-1.403c1.296-0.575,2.802-0.938,3.741-1.871c1.428-0.13,2.248-0.871,3.04-1.637
	c1.116,0.18,1.038-0.833,2.104-0.701c0.697-0.316,1.514-0.513,1.871-1.169c1.233-0.015,1.444-1.05,2.571-1.169
	c0.352,0.181,2.818-0.754,2.573-1.169c0.679-0.412,1.816-0.365,2.338-0.936c0.931-0.004,1.647-0.223,2.104-0.702
	c0.839-0.407,1.776-0.718,2.572-1.169c1.172-0.075,2.114-0.381,2.807-0.936c0.143-0.324,0.9-0.035,0.935-0.467
	c1.255-0.07,2.173-0.477,3.04-0.936c13.692-4.779,29.165-7.778,46.53-8.885c0.857,0,1.714,0,2.572,0
	c1.259-0.221,3.457,0.495,3.975-0.468c0.183-0.052,0.272-0.196,0.234-0.468c0.876-0.604,1.301-1.66,1.871-2.572
	c0.142-0.014,0.277-0.035,0.234-0.234c0.796-0.372,0.929-1.41,1.636-1.871c-0.016-1.03,1.096-0.931,1.169-1.871
	c0.078,0,0.156,0,0.234,0c0.65-0.52,1.364-0.974,1.637-1.87c0.657-0.278,0.87-1.001,1.402-1.403c0.761-0.798,1.589-1.53,2.104-2.572
	c-0.03-0.42,0.232-0.548,0.702-0.467c1.195-1.534,2.833-2.623,3.974-4.209c0.867-0.693,1.775-1.343,2.573-2.104
	c1.604-1.046,3.139-2.161,4.442-3.508c0.078,0,0.156,0,0.234,0c0.568-0.446,1.534-0.494,1.637-1.402c0.156,0,0.312,0,0.468,0
	c1.593-1.447,3.773-2.308,5.377-3.741c1.859-0.323,2.901-1.465,4.209-2.339c0.316-0.073,0.446-0.333,0.935-0.233
	c0.773-0.395,1.485-0.854,2.104-1.403c0.142-0.014,0.277-0.035,0.234-0.234c1.537-0.412,2.415-1.482,3.741-2.104
	c0.051-0.182,0.196-0.272,0.467-0.234c0.587-0.505,1.363-0.819,1.87-1.403c0.276-0.036,0.664,0.041,0.702-0.234
	c0.892-0.122,1.51-0.515,2.104-0.935c2.806-1.871,6.409-2.943,9.586-4.443c0.583-0.431,1.863-0.164,2.105-0.935
	c7.583-2.393,16.021-3.931,25.485-4.442c0.935,0,1.871,0,2.807,0c1.018-0.151,2.643,0.305,3.273-0.234c0.779,0,1.56,0,2.338,0
	c0.701,0,1.403,0,2.104,0c0.63,0.539,2.254,0.083,3.273,0.234c0.39,0,0.78,0,1.169,0c0.325,0.533,1.628,0.087,2.339,0.233
	c7.553,1.099,14.022,3.281,20.343,5.612c0.515,0.575,1.994,0.137,2.104-0.468c0.697-0.159,1.431-0.284,1.636-0.935
	c0.183-0.053,0.463-0.007,0.469-0.234c1.18,0.011,1.656-0.681,2.337-1.169c16.201-7.183,32.978-13.788,55.416-14.73
	c1.948,0,3.896,0,5.845,0c0.858,0,1.717,0,2.574,0s1.714,0,2.571,0c1.014,0,2.026,0,3.04,0c0.324,0.533,1.628,0.086,2.339,0.233
	c13.786,1.177,24.101,5.827,34.839,10.054c0.292,0.566,0.957,0.756,1.636,0.936c0.322-0.01,0.515,0.11,0.701,0.234
	c0.294,0.565,0.96,0.756,1.639,0.935c2.868,1.65,6.039,3.002,8.651,4.91c0.421,0.592,1.147,0.879,1.87,1.169
	c3.564,2.125,7.093,4.287,10.288,6.781c0.384,0.631,0.914,1.112,1.639,1.403c3.851,2.696,7.552,5.542,11.223,8.417
	c0,0.078,0,0.156,0,0.234c0.922,1.417,2.566,2.11,3.509,3.507c0.68,0.878,1.46,1.657,2.337,2.338
	c0.014,0.143,0.035,0.277,0.233,0.234c0.143,0.014,0.277,0.035,0.234,0.234c0.392,0.933,1.116,1.533,1.87,2.104
	c0.057,0.334,0.385,0.395,0.467,0.701c0.483,0.92,0.993,1.813,1.87,2.339c0.985,1.82,2.23,3.382,3.273,5.144
	c0.291,0.723,0.577,1.45,1.17,1.871c0.842,1.886,1.979,3.475,2.806,5.378c0.059,0.875,0.367,1.503,0.936,1.871
	c2.132,5.271,4.123,10.686,5.377,16.835c16.314,2.08,30.233,6.555,42.791,12.393c0.291,0.565,0.957,0.756,1.637,0.935
	c0.953,0.527,2.042,0.919,2.806,1.637c0.42,0.592,1.147,0.879,1.87,1.169c3.005,2.062,6.455,3.676,9.354,5.846
	c0.557,0.846,1.45,1.355,2.338,1.871c0.653,0.359,1.319,0.708,1.87,1.169c0.38,0.712,1.187,0.996,1.87,1.403
	c1.645,0.93,2.832,2.313,4.444,3.274c0.525,0.722,1.148,1.345,1.87,1.871c0.263,0.049,0.364,0.26,0.467,0.467
	c0.707,0.697,1.238,1.566,2.104,2.104c0.158,0.543,0.777,0.626,0.936,1.169c0.51,0.815,1.051,1.599,1.87,2.104
	c0.241,0.616,0.928,0.789,1.169,1.403C588.428,118.715,589.633,120.318,591.16,121.596z M566.375,122.531
	c-0.721-0.795-0.181,2.058,1.169,1.403c0.163-0.787-0.48-0.767-0.701-1.169C566.607,122.767,566.564,122.577,566.375,122.531z
	 M593.264,209.279c0.139,0.485-0.289,1.537,0.233,1.637c0.313-0.465,0.445-1.114,0.702-1.637
	C593.887,209.279,593.575,209.279,593.264,209.279z M258.902,335.776c0.052-0.441-0.265-0.516-0.234-0.936
	c-0.58-0.034-1.135-0.042-1.169,0.468c-0.935,0-1.402,0.466-2.338,0.466c-1.049,0.2-2.183,0.313-2.807,0.937
	c-2.247,0.479-4.441,1.015-6.781,1.402c-0.959-0.024-1.908-0.038-2.337,0.466c-2.593,0.369-5.286,0.638-7.95,0.937
	c-0.857,0-1.714,0-2.572,0c-0.865,0.148-2.33-0.305-2.807,0.232c-1.87,0-3.741,0-5.611,0c-0.623,0-1.246,0-1.871,0
	c-1.017-0.541-3.037-0.08-4.442-0.232c-1.013,0-2.027,0-3.04,0c-2.606,0.11-4.58-0.409-6.546-0.937
	c-0.976-0.807-1.706,0.625-1.872,1.402c-0.112,0.276-0.25,0.531-0.467,0.702c-2.121,2.712-3.958,5.707-5.845,8.652
	c-0.332,0.758-1.08,1.102-1.169,2.104c-0.078,0-0.156,0-0.234,0c-0.854,0.548-1.328,1.477-1.871,2.337
	c-0.385,0.784-1.053,1.286-1.402,2.104c-0.248,0.688-0.79,1.083-1.169,1.637c-0.685-0.208-2.219,1.98-2.104,2.572
	c-1.137,0.632-2.355,2.56-0.935,3.743c0.076,0.572,1.374,2.51,0.935,1.4c1.354,2.232,2.929,4.243,4.443,6.313
	c0.178,0.518,1.625,2.464,1.168,1.402c0.681,0.644,1.124,1.526,1.638,2.339c0.153,0.858,0.862,1.164,1.402,1.637
	c0.229,0.861,1.023,1.158,1.403,1.87c0.221,0.578,1.781,2.696,1.402,1.637c0.666,0.426,0.815,1.366,1.403,1.872
	c0.742,1.36,1.708,2.5,2.806,3.507c1.137,1.356,2.244,2.742,3.507,3.976c0.606,0.719,1.018,1.632,1.872,2.104
	c0.41,0.369,0.484,1.073,1.168,1.168c0,0.078,0,0.154,0,0.232c0.728,1.377,1.935,2.273,3.04,3.274
	c0.014,0.141,0.035,0.276,0.234,0.234c0.838,1.033,1.773,1.967,2.806,2.805c0.644,0.447,1.226,0.955,1.87,1.402
	c4.587,4.298,10.092,7.68,14.965,11.69c0.382,0.632,0.914,1.113,1.637,1.402c5.229,3.58,10.07,7.545,16.134,10.289
	c0.292,0.565,0.958,0.755,1.637,0.935c2.277,1.688,5.71,0.291,8.417-0.232c1.058-3.93,3.171-6.805,3.274-11.691
	c0.535-0.399,0.085-1.784,0.234-2.572c0-0.546,0-1.092,0-1.637c0.537-0.478,0.085-1.942,0.233-2.807c0-0.468,0-0.934,0-1.402
	c0.528-0.175,0.092-1.311,0.234-1.87c0.535-0.399,0.085-1.785,0.234-2.573c0-0.624,0-1.246,0-1.87
	c0.537-0.476,0.085-1.94,0.234-2.805c-0.153-1.484,0.307-3.583-0.234-4.679C268.191,370.446,263.673,352.984,258.902,335.776z
	 M439.177,347c-14.75,4.578-29.931,8.726-48.167,9.82c-0.71,0.146-2.014-0.301-2.337,0.231c-0.156,0-0.312,0-0.468,0
	c-0.857,0-1.715,0-2.572,0c-0.312,0-0.623,0-0.935,0c-0.313,0-0.624,0-0.936,0c-0.39,3.821-0.39,9.274,0,13.094
	c-0.105,3.848,0.639,6.845,1.169,10.055c0.144,1.416,0.292,2.825,0.936,3.741c0.772,5.541,2.033,10.593,3.741,15.197
	c0.644,1.228,1.579,2.164,2.806,2.807c6.198-1.596,12.286-3.301,16.133-7.247c-0.52,0.959,1.441-0.621,1.639-1.169
	c14.224-9.548,27.201-20.343,40.216-31.098c-0.603-0.799-1.305-1.502-2.104-2.104c-0.292-0.489-0.68-0.879-1.169-1.169
	c-0.057-0.334-0.386-0.394-0.468-0.702c-0.243-0.849-0.73-1.451-1.401-1.87c-1.251-2.103-2.653-4.051-3.741-6.313
	c-0.181-0.678-0.371-1.344-0.937-1.637c-0.183-0.051-0.271-0.195-0.232-0.466C440.742,348.056,439.801,346.09,439.177,347z"/>
</svg>
