<?xml version="1.0" encoding="utf-8"?>
<!-- Generator: Adobe Illustrator 15.0.0, SVG Export Plug-In . SVG Version: 6.00 Build 0)  -->
<!DOCTYPE svg PUBLIC "-//W3C//DTD SVG 1.1//EN" "http://www.w3.org/Graphics/SVG/1.1/DTD/svg11.dtd">
<svg version="1.1" id="Layer_1" xmlns="http://www.w3.org/2000/svg" xmlns:xlink="http://www.w3.org/1999/xlink" x="0px" y="0px"
	 width="554px" height="97px" viewBox="0 0 554 97" enable-background="new 0 0 554 97" xml:space="preserve">
<g>
	<path fill="#FFFFFF" d="M280.797,11.323v13.949h13.645C289.154,19.528,285.271,15.566,280.797,11.323z"/>
	<path fill="#FFFFFF" d="M277.619,28.447v-1.681v-1.496V10.363c-0.184-0.019-0.367-0.036-0.541-0.036h-34.951
		c-1.851,0-3.363,1.514-3.363,3.363v64.262c0,1.85,1.513,3.363,3.363,3.363h49.689c1.852,0,3.363-1.514,3.363-3.363V28.447H277.619z
		"/>
</g>
<g>
	<path fill="#FFFFFF" d="M425.266,31.183v5.918h5.789C428.813,34.665,427.164,32.983,425.266,31.183z"/>
	<path fill="#FFFFFF" d="M423.916,38.449v-0.714v-0.635v-6.324c-0.076-0.008-0.154-0.016-0.229-0.016h-14.83
		c-0.783,0-1.426,0.643-1.426,1.426v27.267c0,0.785,0.643,1.429,1.426,1.429h21.084c0.785,0,1.428-0.644,1.428-1.429V38.449H423.916
		z"/>
</g>
<g>
	<g>
		<path fill="#FFFFFF" d="M17.647,12.357v3.474h3.399C19.729,14.401,18.763,13.414,17.647,12.357z"/>
		<path fill="#FFFFFF" d="M16.856,16.622v-0.418v-0.373v-3.713c-0.046-0.004-0.092-0.009-0.135-0.009H8.016
			c-0.46,0-0.837,0.377-0.837,0.838v16.006c0,0.461,0.377,0.838,0.837,0.838h12.377c0.46,0,0.837-0.377,0.837-0.838V16.622H16.856z"
			/>
	</g>
	<g>
		<path fill="#FFFFFF" d="M17.647,37.968v3.475h3.399C19.729,40.011,18.763,39.025,17.647,37.968z"/>
		<path fill="#FFFFFF" d="M16.856,42.233v-0.418v-0.373v-3.713c-0.046-0.004-0.092-0.01-0.135-0.01H8.016
			c-0.46,0-0.837,0.377-0.837,0.838v16.006c0,0.461,0.377,0.838,0.837,0.838h12.377c0.46,0,0.837-0.377,0.837-0.838v-12.33H16.856z"
			/>
	</g>
	<g>
		<path fill="#FFFFFF" d="M17.647,65.302v3.474h3.399C19.729,67.345,18.763,66.358,17.647,65.302z"/>
		<path fill="#FFFFFF" d="M16.856,69.566v-0.419v-0.372v-3.714c-0.046-0.004-0.092-0.008-0.135-0.008H8.016
			c-0.46,0-0.837,0.377-0.837,0.836v16.006c0,0.462,0.377,0.839,0.837,0.839h12.377c0.46,0,0.837-0.377,0.837-0.839V69.566H16.856z"
			/>
	</g>
	<g>
		<path fill="#FFFFFF" d="M39.932,65.302v3.474h3.398C42.013,67.345,41.047,66.358,39.932,65.302z"/>
		<path fill="#FFFFFF" d="M39.141,69.566v-0.419v-0.372v-3.714c-0.046-0.004-0.092-0.008-0.135-0.008H30.3
			c-0.46,0-0.837,0.377-0.837,0.836v16.006c0,0.462,0.377,0.839,0.837,0.839h12.377c0.46,0,0.837-0.377,0.837-0.839V69.566H39.141z"
			/>
	</g>
	<g>
		<path fill="#FFFFFF" d="M39.932,37.968v3.475h3.398C42.013,40.011,41.047,39.025,39.932,37.968z"/>
		<path fill="#FFFFFF" d="M39.141,42.233v-0.418v-0.373v-3.713c-0.046-0.004-0.092-0.01-0.135-0.01H30.3
			c-0.46,0-0.837,0.377-0.837,0.838v16.006c0,0.461,0.377,0.838,0.837,0.838h12.377c0.46,0,0.837-0.377,0.837-0.838v-12.33H39.141z"
			/>
	</g>
	<g>
		<path fill="#FFFFFF" d="M39.932,12.357v3.474h3.398C42.013,14.401,41.047,13.414,39.932,12.357z"/>
		<path fill="#FFFFFF" d="M39.141,16.622v-0.418v-0.373v-3.713c-0.046-0.004-0.092-0.009-0.135-0.009H30.3
			c-0.46,0-0.837,0.377-0.837,0.837v16.006c0,0.461,0.377,0.838,0.837,0.838h12.377c0.46,0,0.837-0.377,0.837-0.838v-12.33H39.141z"
			/>
	</g>
</g>
<g>
	<circle fill="#96CB71" cx="179.343" cy="45.821" r="20"/>
	<text transform="matrix(1 0 0 1 163.3428 47.937)" fill="#231F20" font-family="'SegoeUI-Semibold'" font-size="10">concat</text>
</g>
<g>
	<path fill="#96CB71" d="M119.958,30.825c-3.591-3.433-8.447-5.553-13.808-5.553c-11.046,0-20,8.953-20,20c0,11.045,8.954,20,20,20
		c5.36,0,10.216-2.121,13.808-5.555l-14.446-14.445L119.958,30.825z M104.708,32.233c0-0.553,0.448-1,1-1s1,0.447,1,1s-0.448,1-1,1
		S104.708,32.786,104.708,32.233z"/>
	
		<text transform="matrix(0.7071 0.7071 -0.7071 0.7071 89.2817 38.7437)" fill="#231F20" font-family="'SegoeUI-Semibold'" font-size="6.6066">preprocess</text>
</g>
<polygon fill="none" stroke="#FFFFFF" stroke-miterlimit="10" points="76.403,46.562 67.652,38.981 67.652,43.05 57.275,43.05 
	57.275,49.257 67.652,49.257 67.652,54.142 "/>
<polygon fill="none" stroke="#FFFFFF" stroke-miterlimit="10" points="148.484,45.821 139.733,38.241 139.733,42.31 129.356,42.31 
	129.356,48.517 139.733,48.517 139.733,53.401 "/>
<polygon fill="none" stroke="#FFFFFF" stroke-miterlimit="10" points="228.491,45.821 219.74,38.241 219.74,42.31 209.362,42.31 
	209.362,48.517 219.74,48.517 219.74,53.401 "/>
<polygon fill="none" stroke="#FFFFFF" stroke-miterlimit="10" points="323.156,45.821 314.406,38.241 314.406,42.31 304.029,42.31 
	304.029,48.517 314.406,48.517 314.406,53.401 "/>
<polygon fill="none" stroke="#FFFFFF" stroke-miterlimit="10" points="396.055,45.821 387.305,38.241 387.305,42.31 376.928,42.31 
	376.928,48.517 387.305,48.517 387.305,53.401 "/>
<polygon fill="none" stroke="#FFFFFF" stroke-miterlimit="10" points="464.002,45.821 455.252,38.241 455.252,42.31 444.875,42.31 
	444.875,48.517 455.252,48.517 455.252,53.401 "/>
<g>
	<circle fill="#96CB71" cx="350.928" cy="45.821" r="20"/>
	<text transform="matrix(1 0 0 1 336.9268 47.937)" fill="#231F20" font-family="'SegoeUI-Semibold'" font-size="10">minify</text>
</g>
<path fill="#FFFFFF" d="M472.735,11.938v66.668h66.666V11.938H472.735z M533.594,18.296c1.022,0,1.853,0.83,1.853,1.853
	S534.616,22,533.594,22s-1.853-0.829-1.853-1.852S532.571,18.296,533.594,18.296z M527.797,18.296c1.022,0,1.853,0.83,1.853,1.853
	S528.819,22,527.797,22s-1.853-0.829-1.853-1.852S526.774,18.296,527.797,18.296z M522,18.296c1.022,0,1.852,0.83,1.852,1.853
	S523.022,22,522,22s-1.853-0.829-1.853-1.852S520.978,18.296,522,18.296z M475.821,18.79c0-0.817,0.664-1.48,1.481-1.48h37.437
	c0.818,0,1.481,0.663,1.481,1.48v2.717c0,0.818-0.663,1.481-1.481,1.481h-37.437c-0.817,0-1.481-0.663-1.481-1.481V18.79z
	 M536.315,75.519h-60.494v-47.16h60.494V75.519z"/>
</svg>
