<?xml version="1.0" encoding="utf-8"?>
<!-- Generator: Adobe Illustrator 15.0.0, SVG Export Plug-In . SVG Version: 6.00 Build 0)  -->
<!DOCTYPE svg PUBLIC "-//W3C//DTD SVG 1.1//EN" "http://www.w3.org/Graphics/SVG/1.1/DTD/svg11.dtd">
<svg version="1.1" id="Layer_1" xmlns="http://www.w3.org/2000/svg" xmlns:xlink="http://www.w3.org/1999/xlink" x="0px" y="0px"
	 width="394.14px" height="102.445px" viewBox="0 0 394.14 102.445" enable-background="new 0 0 394.14 102.445"
	 xml:space="preserve">
<g>
	<g>
		<path fill="#FFFFFF" d="M217.596,19.604v13.949h13.646C225.955,27.809,222.072,23.847,217.596,19.604z"/>
		<path fill="#FFFFFF" d="M214.419,36.728v-1.681v-1.495V18.644c-0.185-0.018-0.367-0.036-0.541-0.036h-34.951
			c-1.851,0-3.363,1.513-3.363,3.363v64.262c0,1.85,1.514,3.363,3.363,3.363h49.689c1.851,0,3.362-1.514,3.362-3.363V36.728H214.419
			z"/>
	</g>
	<g>
		<path fill="#FFFFFF" d="M362.066,39.463v5.918h5.789C365.613,42.945,363.963,41.264,362.066,39.463z"/>
		<path fill="#FFFFFF" d="M360.715,46.729v-0.714v-0.634v-6.325c-0.076-0.008-0.152-0.016-0.229-0.016h-14.83
			c-0.783,0-1.426,0.643-1.426,1.427v27.267c0,0.785,0.643,1.428,1.426,1.428h21.084c0.785,0,1.429-0.643,1.429-1.428V46.729
			H360.715z"/>
	</g>
	<g>
		<g>
			<path fill="#FFFFFF" d="M30.029,19.037v3.474h3.399C32.111,21.081,31.144,20.093,30.029,19.037z"/>
			<path fill="#FFFFFF" d="M29.238,23.301v-0.418V22.51v-3.713c-0.046-0.004-0.092-0.009-0.135-0.009h-8.706
				c-0.46,0-0.837,0.377-0.837,0.838v16.006c0,0.461,0.377,0.838,0.837,0.838h12.377c0.46,0,0.837-0.377,0.837-0.838V23.301H29.238z
				"/>
		</g>
		<g>
			<path fill="#FFFFFF" d="M30.029,44.647v3.474h3.399C32.111,46.69,31.144,45.705,30.029,44.647z"/>
			<path fill="#FFFFFF" d="M29.238,48.913v-0.418v-0.373v-3.713c-0.046-0.004-0.092-0.009-0.135-0.009h-8.706
				c-0.46,0-0.837,0.377-0.837,0.837v16.005c0,0.462,0.377,0.839,0.837,0.839h12.377c0.46,0,0.837-0.377,0.837-0.839V48.913H29.238z
				"/>
		</g>
		<g>
			<path fill="#FFFFFF" d="M30.029,71.98v3.475h3.399C32.111,74.025,31.144,73.038,30.029,71.98z"/>
			<path fill="#FFFFFF" d="M29.238,76.246v-0.418v-0.373v-3.713c-0.046-0.004-0.092-0.01-0.135-0.01h-8.706
				c-0.46,0-0.837,0.377-0.837,0.838v16.006c0,0.461,0.377,0.838,0.837,0.838h12.377c0.46,0,0.837-0.377,0.837-0.838v-12.33H29.238z
				"/>
		</g>
		<g>
			<path fill="#FFFFFF" d="M52.313,71.98v3.475h3.398C54.394,74.025,53.428,73.038,52.313,71.98z"/>
			<path fill="#FFFFFF" d="M51.522,76.246v-0.418v-0.373v-3.713c-0.046-0.004-0.092-0.01-0.135-0.01h-8.706
				c-0.46,0-0.837,0.377-0.837,0.838v16.006c0,0.461,0.377,0.838,0.837,0.838h12.377c0.46,0,0.837-0.377,0.837-0.838v-12.33H51.522z
				"/>
		</g>
		<g>
			<path fill="#FFFFFF" d="M52.313,44.647v3.474h3.398C54.394,46.69,53.428,45.705,52.313,44.647z"/>
			<path fill="#FFFFFF" d="M51.522,48.913v-0.418v-0.373v-3.713c-0.046-0.004-0.092-0.009-0.135-0.009h-8.706
				c-0.46,0-0.837,0.377-0.837,0.837v16.005c0,0.462,0.377,0.839,0.837,0.839h12.377c0.46,0,0.837-0.377,0.837-0.839V48.913H51.522z
				"/>
		</g>
		<g>
			<path fill="#FFFFFF" d="M52.313,19.037v3.474h3.398C54.394,21.081,53.428,20.093,52.313,19.037z"/>
			<path fill="#FFFFFF" d="M51.522,23.301v-0.418V22.51v-3.713c-0.046-0.004-0.092-0.009-0.135-0.009h-8.706
				c-0.46,0-0.837,0.377-0.837,0.837v16.006c0,0.461,0.377,0.838,0.837,0.838h12.377c0.46,0,0.837-0.377,0.837-0.838v-12.33H51.522z
				"/>
		</g>
	</g>
	<g>
		<circle fill="#96CB71" cx="116.143" cy="54.101" r="20"/>
		<text transform="matrix(1 0 0 1 100.1423 56.2163)" fill="#231F20" font-family="'SegoeUI-Semibold'" font-size="10">concat</text>
	</g>
	<polygon fill="none" stroke="#FFFFFF" stroke-miterlimit="10" points="88.063,54.102 79.312,46.521 79.312,50.59 68.935,50.59 
		68.935,56.797 79.312,56.797 79.312,61.681 	"/>
	<polygon fill="none" stroke="#FFFFFF" stroke-miterlimit="10" points="165.291,54.102 156.54,46.521 156.54,50.59 146.162,50.59 
		146.162,56.797 156.54,56.797 156.54,61.681 	"/>
	<polygon fill="none" stroke="#FFFFFF" stroke-miterlimit="10" points="259.957,54.102 251.206,46.521 251.206,50.59 240.829,50.59 
		240.829,56.797 251.206,56.797 251.206,61.681 	"/>
	<polygon fill="none" stroke="#FFFFFF" stroke-miterlimit="10" points="332.855,54.102 324.105,46.521 324.105,50.59 313.727,50.59 
		313.727,56.797 324.105,56.797 324.105,61.681 	"/>
	<g>
		<circle fill="#96CB71" cx="287.727" cy="54.101" r="20"/>
		<text transform="matrix(1 0 0 1 273.7263 56.2163)" fill="#231F20" font-family="'SegoeUI-Semibold'" font-size="10">minify</text>
	</g>
</g>
</svg>
