<?xml version="1.0" encoding="utf-8"?>
<!-- Generator: Adobe Illustrator 15.0.0, SVG Export Plug-In . SVG Version: 6.00 Build 0)  -->
<!DOCTYPE svg PUBLIC "-//W3C//DTD SVG 1.1//EN" "http://www.w3.org/Graphics/SVG/1.1/DTD/svg11.dtd">
<svg version="1.1" id="Layer_1" xmlns="http://www.w3.org/2000/svg" xmlns:xlink="http://www.w3.org/1999/xlink" x="0px" y="0px"
	 width="494px" height="234px" viewBox="0 0 494 234" enable-background="new 0 0 494 234" xml:space="preserve">
<path fill="none" stroke="#B5DEF6" stroke-miterlimit="10" d="M75,124.011c0,6.628-5.373,12-12,12H29.487c-6.627,0-12-5.372-12-12
	v-65c0-6.627,5.373-12,12-12H63c6.627,0,12,5.373,12,12V124.011z"/>
<g>
	<path fill="#FFFFFF" d="M300.782,52.558v13.949h13.646C309.141,60.763,305.258,56.801,300.782,52.558z"/>
	<path fill="#FFFFFF" d="M297.605,69.682V68v-1.495V51.598c-0.184-0.018-0.367-0.036-0.541-0.036h-34.951
		c-1.851,0-3.363,1.513-3.363,3.363v64.262c0,1.849,1.513,3.362,3.363,3.362h49.689c1.851,0,3.363-1.514,3.363-3.362V69.682H297.605
		z"/>
</g>
<g>
	<path fill="#FFFFFF" d="M445.252,72.417v5.918h5.789C448.799,75.899,447.15,74.218,445.252,72.417z"/>
	<path fill="#FFFFFF" d="M443.902,79.684V78.97v-0.634v-6.325c-0.076-0.008-0.154-0.016-0.229-0.016h-14.83
		c-0.783,0-1.426,0.643-1.426,1.427v27.266c0,0.785,0.643,1.428,1.426,1.428h21.084c0.785,0,1.428-0.643,1.428-1.428V79.684H443.902
		z"/>
</g>
<g>
	<g>
		<path fill="#FFFFFF" d="M37.633,53.592v3.474h3.399C39.715,55.636,38.749,54.648,37.633,53.592z"/>
		<path fill="#FFFFFF" d="M36.842,57.856v-0.418v-0.373v-3.713c-0.046-0.004-0.092-0.009-0.135-0.009h-8.706
			c-0.46,0-0.837,0.377-0.837,0.838v16.006c0,0.461,0.377,0.838,0.837,0.838h12.377c0.46,0,0.837-0.377,0.837-0.838V57.856H36.842z"
			/>
	</g>
	<g>
		<path fill="#FFFFFF" d="M37.633,79.203v3.474h3.399C39.715,81.246,38.749,80.26,37.633,79.203z"/>
		<path fill="#FFFFFF" d="M36.842,83.468V83.05v-0.373v-3.713c-0.046-0.004-0.092-0.009-0.135-0.009h-8.706
			c-0.46,0-0.837,0.377-0.837,0.837v16.006c0,0.461,0.377,0.838,0.837,0.838h12.377c0.46,0,0.837-0.377,0.837-0.838v-12.33H36.842z"
			/>
	</g>
	<g>
		<path fill="#FFFFFF" d="M37.633,106.536v3.474h3.399C39.715,108.58,38.749,107.593,37.633,106.536z"/>
		<path fill="#FFFFFF" d="M36.842,110.801v-0.418v-0.373v-3.713c-0.046-0.004-0.092-0.009-0.135-0.009h-8.706
			c-0.46,0-0.837,0.377-0.837,0.837v16.006c0,0.461,0.377,0.838,0.837,0.838h12.377c0.46,0,0.837-0.377,0.837-0.838v-12.33H36.842z"
			/>
	</g>
	<g>
		<path fill="#FFFFFF" d="M59.917,106.536v3.474h3.398C61.999,108.58,61.033,107.593,59.917,106.536z"/>
		<path fill="#FFFFFF" d="M59.126,110.801v-0.418v-0.373v-3.713c-0.046-0.004-0.092-0.009-0.135-0.009h-8.706
			c-0.46,0-0.837,0.377-0.837,0.837v16.006c0,0.461,0.377,0.838,0.837,0.838h12.377c0.46,0,0.837-0.377,0.837-0.838v-12.33H59.126z"
			/>
	</g>
	<g>
		<path fill="#FFFFFF" d="M59.917,79.203v3.474h3.398C61.999,81.246,61.033,80.26,59.917,79.203z"/>
		<path fill="#FFFFFF" d="M59.126,83.468V83.05v-0.373v-3.713c-0.046-0.004-0.092-0.009-0.135-0.009h-8.706
			c-0.46,0-0.837,0.377-0.837,0.837v16.006c0,0.461,0.377,0.838,0.837,0.838h12.377c0.46,0,0.837-0.377,0.837-0.838v-12.33H59.126z"
			/>
	</g>
	<g>
		<path fill="#FFFFFF" d="M59.917,53.592v3.474h3.398C61.999,55.636,61.033,54.648,59.917,53.592z"/>
		<path fill="#FFFFFF" d="M59.126,57.856v-0.418v-0.373v-3.713c-0.046-0.004-0.092-0.009-0.135-0.009h-8.706
			c-0.46,0-0.837,0.377-0.837,0.837v16.006c0,0.461,0.377,0.838,0.837,0.838h12.377c0.46,0,0.837-0.377,0.837-0.838v-12.33H59.126z"
			/>
	</g>
</g>
<g>
	<circle fill="#96CB71" cx="199.329" cy="87.056" r="20"/>
	<text transform="matrix(1 0 0 1 183.3286 89.1714)" fill="#231F20" font-family="'SegoeUI-Semibold'" font-size="10">concat</text>
</g>
<g>
	<path fill="#96CB71" d="M139.944,72.06c-3.591-3.433-8.447-5.554-13.808-5.554c-11.046,0-20,8.954-20,20c0,11.045,8.954,20,20,20
		c5.36,0,10.216-2.121,13.808-5.554l-14.446-14.446L139.944,72.06z M124.694,73.468c0-0.552,0.448-1,1-1s1,0.448,1,1s-0.448,1-1,1
		S124.694,74.02,124.694,73.468z"/>
	
		<text transform="matrix(0.7071 0.7071 -0.7071 0.7071 109.2681 79.978)" fill="#231F20" font-family="'SegoeUI-Semibold'" font-size="6.6066">preprocess</text>
</g>
<polygon fill="none" stroke="#FFFFFF" stroke-miterlimit="10" points="96.389,87.795 87.638,80.215 87.638,84.284 77.261,84.284 
	77.261,90.491 87.638,90.491 87.638,95.375 "/>
<polygon fill="none" stroke="#FFFFFF" stroke-miterlimit="10" points="168.47,87.056 159.719,79.476 159.719,83.544 149.342,83.544 
	149.342,89.751 159.719,89.751 159.719,94.636 "/>
<polygon fill="none" stroke="#FFFFFF" stroke-miterlimit="10" points="248.477,87.056 239.726,79.476 239.726,83.544 
	229.348,83.544 229.348,89.751 239.726,89.751 239.726,94.636 "/>
<polygon fill="none" stroke="#FFFFFF" stroke-miterlimit="10" points="343.143,87.056 334.393,79.476 334.393,83.544 
	324.015,83.544 324.015,89.751 334.393,89.751 334.393,94.636 "/>
<polygon fill="none" stroke="#FFFFFF" stroke-miterlimit="10" points="416.041,87.056 407.291,79.476 407.291,83.544 
	396.914,83.544 396.914,89.751 407.291,89.751 407.291,94.636 "/>
<g>
	<circle fill="#96CB71" cx="370.914" cy="87.056" r="20"/>
	<text transform="matrix(1 0 0 1 356.9121 89.1714)" fill="#231F20" font-family="'SegoeUI-Semibold'" font-size="10">minify</text>
</g>
<path fill="#B5DEF6" d="M244.885,201.406l-3.392-2.775c-0.471-0.185-0.917-0.521-0.917-0.911l0.008-0.1
	c-0.013-0.132,0.003-0.278,0.033-0.427l0.49-6.369c0-0.587,0.475-1.063,1.06-1.063c0.586,0,1.062,0.476,1.062,1.063l0.443,5.767
	l2.712,3.316c0.414,0.414,0.414,1.085,0,1.499S245.299,201.82,244.885,201.406z M258.083,197.72c0,8.789-7.126,15.914-15.915,15.914
	c-8.788,0-15.914-7.125-15.914-15.914c0-8.79,7.125-15.913,15.914-15.913c1.361,0,2.676,0.19,3.936,0.514
	c0.105,0.01,0.211,0.029,0.315,0.072c0.542,0.224,0.799,0.844,0.575,1.385c-0.198,0.479-0.703,0.732-1.191,0.634l-0.004,0.015
	c-1.158-0.315-2.371-0.499-3.629-0.499c-7.617,0-13.792,6.176-13.792,13.793s6.175,13.792,13.792,13.792
	c7.617,0,13.792-6.175,13.792-13.792c0-0.704-0.068-1.39-0.17-2.064l0.025-0.003c-0.023-0.084-0.04-0.17-0.043-0.261
	c-0.012-0.586,0.451-1.071,1.038-1.085c0.585-0.013,1.071,0.451,1.085,1.038c0,0.014-0.005,0.027-0.005,0.042
	C258.005,196.15,258.083,196.925,258.083,197.72z"/>
<g>
	<g>
		<g>
			<path fill="#B5DEF6" d="M454.324,112.529v1.184h-16c-1.186,0-2,0.297-2.594,0.963c-0.74,0.816-0.814,2-0.814,2.668h3.334v1.186
				h-3.926c-0.297,0-0.52-0.223-0.594-0.52c0-0.074-0.369-2.518,1.037-4.148c0.814-0.963,2-1.406,3.557-1.406h16V112.529z"/>
			<path fill="#B5DEF6" d="M452.547,110.084v1.185h-18c-1.186,0-2,0.297-2.594,0.963c-0.74,0.814-0.814,2-0.814,2.666h3.334v1.186
				h-3.854c-0.295,0-0.518-0.223-0.592-0.518c0-0.074-0.371-2.52,1.037-4.148c0.814-0.963,2-1.408,3.555-1.408h17.928V110.084z"/>
			<path fill="#B5DEF6" d="M459.213,109.789v1.185c-0.963,0-1.631-0.296-2-0.815c-0.297-0.443-0.371-0.889-0.371-1.259h-18.74
				c-1.629,0-2.74,0.667-3.186,2l-1.186-0.37c0.594-1.852,2.148-2.889,4.297-2.889h19.482c0.221,0,0.369,0.074,0.518,0.223
				c0.148,0.147,0.148,0.369,0.074,0.592c-0.074,0.148-0.148,0.666,0.074,0.963S458.842,109.789,459.213,109.789z"/>
			<rect x="438.324" y="112.604" fill="#B5DEF6" width="0.963" height="1.184"/>
			<path fill="#B5DEF6" d="M474.027,115.047c0,1.852-0.592,3.852-2.297,5.557c-0.148,0.146-0.295,0.146-0.443,0.146h-33.111
				c-0.297,0-0.52-0.221-0.594-0.518c0-0.074-0.369-2.52,1.037-4.148c0.816-0.963,2-1.408,3.557-1.408h13.26
				c0.963-0.814,5.406-3.85,13.258,0.074l-0.592,1.111c-7.926-3.998-11.926-0.295-12.074-0.074
				c-0.074,0.074-0.223,0.074-0.371,0.074h-13.555c-1.186,0-2,0.297-2.592,0.963c-0.742,0.814-0.816,2-0.816,2.668h32.297
				c3.926-4.148,0.223-10-0.223-10.593c-5.777-5.333-11.926-3.778-12-3.778h-0.074l-8.666,1.111c-0.223,0-2.148,0.223-2.148,2
				h-1.186c0-2.369,2.074-3.185,3.26-3.259l8.594-0.963c0.666-0.147,7.109-1.556,13.109,4.074l0.074,0.073
				C471.805,108.232,474.027,111.418,474.027,115.047z"/>
		</g>
		<g>
			<path fill="#B5DEF6" d="M454.949,60.324v1.186h-16c-1.557,0-2.742-0.445-3.557-1.408c-1.406-1.629-1.037-4.074-1.037-4.148
				c0.074-0.296,0.297-0.518,0.594-0.518h3.926v1.186h-3.334c0,0.666,0.074,1.852,0.814,2.666c0.594,0.666,1.408,0.963,2.594,0.963
				h16V60.324z"/>
			<path fill="#B5DEF6" d="M453.172,62.768v1.185h-18c-1.557,0-2.742-0.443-3.557-1.406c-1.408-1.631-1.037-4.074-1.037-4.148
				c0.074-0.297,0.297-0.52,0.594-0.52h3.926v1.186h-3.334c0,0.667,0.074,1.852,0.814,2.667c0.594,0.667,1.408,0.963,2.594,0.963h18
				V62.768z"/>
			<path fill="#B5DEF6" d="M459.838,63.138v1.186c-0.371,0-0.814,0.074-0.963,0.297c-0.223,0.295-0.074,0.814,0,0.963
				c0.074,0.222,0,0.369-0.074,0.518c-0.148,0.148-0.297,0.223-0.52,0.223h-19.555c-2.223,0-3.703-1.037-4.297-2.889l1.186-0.371
				c0.445,1.334,1.482,2,3.186,2h18.74c0-0.37,0.074-0.814,0.371-1.259C458.207,63.435,458.875,63.138,459.838,63.138z"/>
			<rect x="438.949" y="60.398" fill="#B5DEF6" width="0.963" height="1.186"/>
			<path fill="#B5DEF6" d="M474.652,59.064c0,3.63-2.223,6.814-2.223,6.889l-0.074,0.074c-6.074,5.704-12.518,4.297-13.111,4.074
				l-8.74-1.037c-1.111-0.074-3.186-0.814-3.186-3.186h1.186c0,1.778,1.852,2,2.074,2l8.814,1.037h0.074
				c0.223,0.074,6.297,1.557,12-3.777c0.445-0.666,4.148-6.444,0.223-10.592h-32.371c0,0.666,0.074,1.852,0.816,2.666
				c0.592,0.666,1.406,0.963,2.592,0.963h13.555c0.148,0,0.297,0.074,0.445,0.148c0.148,0.148,4.148,3.852,12.074-0.074l0.518,1.111
				c-7.852,3.926-12.295,0.889-13.258,0.074h-13.334c-1.555,0-2.74-0.445-3.555-1.408c-1.408-1.629-1.037-4.074-1.037-4.148
				c0.072-0.295,0.295-0.518,0.592-0.518h33.111c0.148,0,0.297,0.074,0.443,0.148C474.061,55.212,474.652,57.212,474.652,59.064z"/>
		</g>
	</g>
</g>
<g>
	<g>
		<line fill="none" stroke="#B5DEF6" stroke-width="3" stroke-miterlimit="10" x1="42.589" y1="171.5" x2="427.861" y2="171.5"/>
		<g>
			<polygon fill="#B5DEF6" points="21.407,171.5 51.255,183.696 44.172,171.5 51.255,159.307 			"/>
		</g>
		<g>
			<polygon fill="#B5DEF6" points="449.043,171.5 419.195,183.696 426.277,171.5 419.195,159.307 			"/>
		</g>
	</g>
</g>
<path fill="#B5DEF6" d="M64.435,39.853L52.899,28.318c1.498-2.233,2.303-4.859,2.303-7.609c0-3.659-1.425-7.099-4.012-9.686
	c-2.587-2.587-6.026-4.012-9.685-4.012s-7.099,1.425-9.686,4.012s-4.012,6.027-4.012,9.686s1.425,7.098,4.012,9.686
	c2.587,2.587,6.026,4.012,9.686,4.012c2.78,0,5.433-0.824,7.683-2.355l11.524,11.524c0.389,0.389,1.104,0.304,1.598-0.189
	l1.937-1.936C64.74,40.957,64.824,40.243,64.435,39.853z M41.505,30.695c-5.507,0-9.987-4.479-9.987-9.986s4.48-9.987,9.987-9.987
	s9.986,4.48,9.986,9.987S47.012,30.695,41.505,30.695z"/>
</svg>
