<?xml version="1.0" encoding="utf-8"?>
<!-- Generator: Adobe Illustrator 15.0.0, SVG Export Plug-In . SVG Version: 6.00 Build 0)  -->
<!DOCTYPE svg PUBLIC "-//W3C//DTD SVG 1.1//EN" "http://www.w3.org/Graphics/SVG/1.1/DTD/svg11.dtd">
<svg version="1.1" id="Layer_1" xmlns="http://www.w3.org/2000/svg" xmlns:xlink="http://www.w3.org/1999/xlink" x="0px" y="0px"
	 width="600px" height="306.05px" viewBox="0 0 600 306.05" enable-background="new 0 0 600 306.05" xml:space="preserve">
<rect x="0" opacity="0.3" fill="#596F76" enable-background="new    " width="41.029" height="306.05"/>
<rect x="50.815" opacity="0.3" fill="#596F76" enable-background="new    " width="41.029" height="306.05"/>
<rect x="101.632" opacity="0.3" fill="#596F76" enable-background="new    " width="41.028" height="306.05"/>
<rect x="152.447" opacity="0.3" fill="#596F76" enable-background="new    " width="41.029" height="306.05"/>
<rect x="203.263" opacity="0.3" fill="#596F76" enable-background="new    " width="41.029" height="306.05"/>
<rect x="254.079" opacity="0.3" fill="#596F76" enable-background="new    " width="41.027" height="306.05"/>
<rect x="304.896" opacity="0.3" fill="#596F76" enable-background="new    " width="41.024" height="306.05"/>
<rect x="355.71" opacity="0.3" fill="#596F76" enable-background="new    " width="41.027" height="306.05"/>
<rect x="406.524" opacity="0.3" fill="#596F76" enable-background="new    " width="41.031" height="306.05"/>
<rect x="457.34" opacity="0.3" fill="#596F76" enable-background="new    " width="41.03" height="306.05"/>
<rect x="508.156" opacity="0.3" fill="#596F76" enable-background="new    " width="41.027" height="306.05"/>
<rect x="558.974" opacity="0.3" fill="#596F76" enable-background="new    " width="41.026" height="306.05"/>
<rect x="0" fill="#596F76" width="41.029" height="33.053"/>
<rect x="50.815" fill="#596F76" width="41.029" height="33.053"/>
<rect x="101.632" fill="#596F76" width="41.028" height="33.053"/>
<rect x="152.447" fill="#596F76" width="41.029" height="33.053"/>
<rect x="203.263" fill="#596F76" width="41.029" height="33.053"/>
<rect x="254.079" fill="#596F76" width="41.027" height="33.053"/>
<rect x="304.896" fill="#596F76" width="41.024" height="33.053"/>
<rect x="355.71" fill="#596F76" width="41.027" height="33.053"/>
<rect x="406.524" fill="#596F76" width="41.031" height="33.053"/>
<rect x="457.34" fill="#596F76" width="41.03" height="33.053"/>
<rect x="508.156" fill="#596F76" width="41.027" height="33.053"/>
<rect x="558.974" fill="#596F76" width="41.026" height="33.053"/>
<text transform="matrix(0.8481 0 0 1 16.7732 21.2563)" fill="#FFFFFF" font-family="'Impact'" font-size="16.6384">1</text>
<text transform="matrix(0.8481 0 0 1 66.1775 21.2563)" fill="#FFFFFF" font-family="'Impact'" font-size="16.6384">2</text>
<text transform="matrix(0.8481 0 0 1 118.9343 21.2563)" fill="#FFFFFF" font-family="'Impact'" font-size="16.6384">3</text>
<text transform="matrix(0.8481 0 0 1 168.9939 21.2563)" fill="#FFFFFF" font-family="'Impact'" font-size="16.6384">4</text>
<text transform="matrix(0.8481 0 0 1 220.7351 21.2563)" fill="#FFFFFF" font-family="'Impact'" font-size="16.6384">5</text>
<text transform="matrix(0.8481 0 0 1 270.4607 21.2563)" fill="#FFFFFF" font-family="'Impact'" font-size="16.6384">6</text>
<text transform="matrix(0.8481 0 0 1 321.5276 21.2563)" fill="#FFFFFF" font-family="'Impact'" font-size="16.6384">7</text>
<text transform="matrix(0.8481 0 0 1 373.9417 21.2563)" fill="#FFFFFF" font-family="'Impact'" font-size="16.6384">8</text>
<text transform="matrix(0.8481 0 0 1 425.01 21.2563)" fill="#FFFFFF" font-family="'Impact'" font-size="16.6384">9</text>
<text transform="matrix(0.8481 0 0 1 472.717 21.2563)" fill="#FFFFFF" font-family="'Impact'" font-size="16.6384">10</text>
<text transform="matrix(0.8481 0 0 1 523.4495 21.2563)" fill="#FFFFFF" font-family="'Impact'" font-size="16.6384">11</text>
<text transform="matrix(0.8481 0 0 1 574.5354 21.2563)" fill="#FFFFFF" font-family="'Impact'" font-size="16.6384">12</text>
<rect x="0" y="45.052" opacity="0.8" fill="#EFD037" enable-background="new    " width="600" height="34"/>
<rect x="0" y="263.05" opacity="0.8" fill="#EFD037" enable-background="new    " width="600" height="34"/>
<rect x="0" y="88.052" opacity="0.8" fill="#EFD037" enable-background="new    " width="193.476" height="166"/>
<rect x="203.262" y="88.052" opacity="0.8" fill="#EFD037" enable-background="new    " width="396.738" height="166"/>
<text transform="matrix(0.8481 0 0 1 50.8152 67.2563)" fill="#FFFFFF" font-family="'Impact'" font-size="16.6384">small-12</text>
<text transform="matrix(0.8481 0 0 1 50.8152 287.2573)" fill="#FFFFFF" font-family="'Impact'" font-size="16.6384">small-12</text>
<text transform="matrix(0.8481 0 0 1 50.8152 109.2563)" fill="#FFFFFF" font-family="'Impact'" font-size="16.6384">medium-4</text>
<text transform="matrix(0.8481 0 0 1 254.0789 109.2563)" fill="#FFFFFF" font-family="'Impact'" font-size="16.6384">medium-8</text>
</svg>
