<?xml version="1.0" encoding="utf-8"?>
<!-- Generator: Adobe Illustrator 15.0.0, SVG Export Plug-In . SVG Version: 6.00 Build 0)  -->
<!DOCTYPE svg PUBLIC "-//W3C//DTD SVG 1.1//EN" "http://www.w3.org/Graphics/SVG/1.1/DTD/svg11.dtd">
<svg version="1.1" id="Layer_1" xmlns="http://www.w3.org/2000/svg" xmlns:xlink="http://www.w3.org/1999/xlink" x="0px" y="0px"
	 width="288px" height="49px" viewBox="0 0 288 49" enable-background="new 0 0 288 49" xml:space="preserve">
<g>
	<g>
		<path fill="#FFFFFF" d="M28.097,12.614v4.387h4.292C30.726,15.195,29.504,13.949,28.097,12.614z"/>
		<path fill="#FFFFFF" d="M27.099,18v-0.529V17v-4.688c-0.059-0.006-0.116-0.011-0.171-0.011H15.938
			c-0.583,0-1.059,0.476-1.059,1.058v20.208c0,0.58,0.476,1.057,1.059,1.057h15.624c0.582,0,1.058-0.477,1.058-1.057V18H27.099z"/>
	</g>
	<g>
		<path fill="#FFFFFF" d="M150.086,12.614V17h4.292C152.715,15.195,151.493,13.949,150.086,12.614z"/>
		<path fill="#FFFFFF" d="M149.088,18v-0.529V17v-4.688c-0.059-0.006-0.116-0.011-0.171-0.011h-10.989
			c-0.583,0-1.059,0.476-1.059,1.058v20.208c0,0.58,0.476,1.057,1.059,1.057h15.624c0.582,0,1.058-0.477,1.058-1.057V18H149.088z"/>
	</g>
	<polygon fill="none" stroke="#FFFFFF" stroke-miterlimit="10" points="124.807,23.463 116.056,15.882 116.056,19.951 
		105.678,19.951 105.678,26.158 116.056,26.158 116.056,31.043 	"/>
	<polygon fill="none" stroke="#FFFFFF" stroke-miterlimit="10" points="63.811,23.462 55.061,15.882 55.061,19.951 44.684,19.951 
		44.684,26.158 55.061,26.158 55.061,31.043 	"/>
	<g>
		<path fill="#FFFFFF" d="M92.055,37.865H77.434c-3.818,0-6.926-3.107-6.926-6.928v-14.95c0-3.819,3.106-6.928,6.926-6.928h14.621
			c3.818,0,6.927,3.107,6.927,6.928v14.952C98.981,34.758,95.874,37.865,92.055,37.865z M77.434,11.282
			c-2.594,0-4.704,2.111-4.704,4.705v14.952c0,2.594,2.11,4.705,4.704,4.705h14.621c2.594,0,4.705-2.111,4.705-4.705V15.987
			c0-2.594-2.111-4.705-4.705-4.705H77.434z"/>
	</g>
	<g>
		<path fill="#FFFFFF" d="M84.992,25.02h-5.673c-1.856,0-3.367-1.51-3.367-3.368v-5.061c0-1.856,1.511-3.367,3.367-3.367h3.622
			c0.613,0,1.111,0.498,1.111,1.111s-0.498,1.111-1.111,1.111h-3.622c-0.632,0-1.146,0.514-1.146,1.145v5.061
			c0,0.633,0.514,1.146,1.146,1.146h5.673c0.632,0,1.145-0.514,1.145-1.146v-2.818c0-0.613,0.498-1.111,1.111-1.111
			s1.111,0.498,1.111,1.111v2.818C88.359,23.509,86.85,25.02,84.992,25.02z"/>
	</g>
	<g>
		<path fill="#FFFFFF" d="M82.297,21.689c-0.327,0-0.651-0.143-0.871-0.418l-1.854-2.33c-0.382-0.48-0.302-1.18,0.178-1.561
			c0.48-0.382,1.181-0.303,1.561,0.178l1.854,2.33c0.383,0.479,0.303,1.178-0.178,1.561C82.783,21.611,82.539,21.689,82.297,21.689z
			"/>
	</g>
	<g>
		<path fill="#FFFFFF" d="M82.295,21.689c-0.139,0-0.279-0.025-0.416-0.08c-0.569-0.23-0.844-0.879-0.613-1.447
			c0.074-0.182,1.852-4.491,5.76-7.297c0.498-0.357,1.191-0.246,1.551,0.254c0.357,0.498,0.244,1.192-0.254,1.551
			c-3.392,2.436-4.981,6.29-4.996,6.327C83.15,21.427,82.733,21.689,82.295,21.689z"/>
	</g>
	<g>
		<path fill="#FFFFFF" d="M92.426,28.723H77.063c-0.613,0-1.11-0.498-1.11-1.111s0.497-1.111,1.11-1.111h15.363
			c0.613,0,1.111,0.498,1.111,1.111S93.039,28.723,92.426,28.723z"/>
	</g>
	<g>
		<path fill="#FFFFFF" d="M85.82,32.426h-8.758c-0.613,0-1.11-0.498-1.11-1.111s0.497-1.111,1.11-1.111h8.758
			c0.613,0,1.111,0.498,1.111,1.111S86.434,32.426,85.82,32.426z"/>
	</g>
	<g>
		<path fill="#FFFFFF" d="M272.075,12.614V17h4.292C274.704,15.195,273.482,13.949,272.075,12.614z"/>
		<path fill="#FFFFFF" d="M271.077,18v-0.529V17v-4.688c-0.059-0.006-0.116-0.011-0.171-0.011h-10.989
			c-0.583,0-1.059,0.476-1.059,1.058v20.208c0,0.58,0.476,1.057,1.059,1.057h15.624c0.582,0,1.058-0.477,1.058-1.057V18H271.077z"/>
	</g>
	<polygon fill="none" stroke="#FFFFFF" stroke-miterlimit="10" points="246.796,23.463 238.045,15.882 238.045,19.951 
		227.667,19.951 227.667,26.158 238.045,26.158 238.045,31.043 	"/>
	<polygon fill="none" stroke="#FFFFFF" stroke-miterlimit="10" points="185.8,23.462 177.05,15.882 177.05,19.951 166.673,19.951 
		166.673,26.158 177.05,26.158 177.05,31.043 	"/>
	<g>
		<path fill="#FFFFFF" d="M214.044,37.865h-14.621c-3.818,0-6.926-3.107-6.926-6.928v-14.95c0-3.819,3.106-6.928,6.926-6.928h14.621
			c3.818,0,6.927,3.107,6.927,6.928v14.952C220.971,34.758,217.863,37.865,214.044,37.865z M199.423,11.282
			c-2.594,0-4.704,2.111-4.704,4.705v14.952c0,2.594,2.11,4.705,4.704,4.705h14.621c2.594,0,4.705-2.111,4.705-4.705V15.987
			c0-2.594-2.111-4.705-4.705-4.705H199.423z"/>
	</g>
	<g>
		<path fill="#FFFFFF" d="M206.981,25.02h-5.673c-1.856,0-3.367-1.51-3.367-3.368v-5.061c0-1.856,1.511-3.367,3.367-3.367h3.622
			c0.613,0,1.111,0.498,1.111,1.111s-0.498,1.111-1.111,1.111h-3.622c-0.632,0-1.146,0.514-1.146,1.145v5.061
			c0,0.633,0.514,1.146,1.146,1.146h5.673c0.632,0,1.145-0.514,1.145-1.146v-2.818c0-0.613,0.498-1.111,1.111-1.111
			s1.111,0.498,1.111,1.111v2.818C210.349,23.509,208.839,25.02,206.981,25.02z"/>
	</g>
	<g>
		<path fill="#FFFFFF" d="M204.286,21.689c-0.327,0-0.651-0.143-0.871-0.418l-1.854-2.33c-0.382-0.48-0.302-1.18,0.178-1.561
			c0.48-0.382,1.181-0.303,1.561,0.178l1.854,2.33c0.383,0.479,0.303,1.178-0.178,1.561
			C204.772,21.611,204.528,21.689,204.286,21.689z"/>
	</g>
	<g>
		<path fill="#FFFFFF" d="M204.284,21.689c-0.139,0-0.279-0.025-0.416-0.08c-0.569-0.23-0.844-0.879-0.613-1.447
			c0.074-0.182,1.852-4.491,5.76-7.297c0.498-0.357,1.191-0.246,1.551,0.254c0.357,0.498,0.244,1.192-0.254,1.551
			c-3.392,2.436-4.981,6.29-4.996,6.327C205.14,21.427,204.723,21.689,204.284,21.689z"/>
	</g>
	<g>
		<path fill="#FFFFFF" d="M214.415,28.723h-15.363c-0.613,0-1.11-0.498-1.11-1.111s0.497-1.111,1.11-1.111h15.363
			c0.613,0,1.111,0.498,1.111,1.111S215.028,28.723,214.415,28.723z"/>
	</g>
	<g>
		<path fill="#FFFFFF" d="M207.81,32.426h-8.758c-0.613,0-1.11-0.498-1.11-1.111s0.497-1.111,1.11-1.111h8.758
			c0.613,0,1.111,0.498,1.111,1.111S208.423,32.426,207.81,32.426z"/>
	</g>
</g>
</svg>
