<?xml version="1.0" encoding="utf-8"?>
<!-- Generator: Adobe Illustrator 15.0.0, SVG Export Plug-In . SVG Version: 6.00 Build 0)  -->
<!DOCTYPE svg PUBLIC "-//W3C//DTD SVG 1.1//EN" "http://www.w3.org/Graphics/SVG/1.1/DTD/svg11.dtd">
<svg version="1.1" id="Layer_1" xmlns="http://www.w3.org/2000/svg" xmlns:xlink="http://www.w3.org/1999/xlink" x="0px" y="0px"
	 width="288px" height="49px" viewBox="0 0 288 49" enable-background="new 0 0 288 49" xml:space="preserve">
<g>
	<path fill="#FFFFFF" d="M26.43,13.652v4.387h4.292C29.059,16.232,27.837,14.986,26.43,13.652z"/>
	<path fill="#FFFFFF" d="M25.432,19.038v-0.529v-0.471v-4.688c-0.059-0.006-0.116-0.012-0.171-0.012H14.272
		c-0.583,0-1.059,0.476-1.059,1.058v20.208c0,0.58,0.476,1.057,1.059,1.057h15.624c0.582,0,1.058-0.477,1.058-1.057V19.038H25.432z"
		/>
</g>
<g>
	<path fill="#FFFFFF" d="M270.263,13.651v4.387h4.292C272.892,16.232,271.67,14.986,270.263,13.651z"/>
	<path fill="#FFFFFF" d="M269.265,19.038v-0.529v-0.471V13.35c-0.059-0.006-0.116-0.011-0.171-0.011h-10.989
		c-0.583,0-1.059,0.476-1.059,1.058v20.208c0,0.58,0.476,1.057,1.059,1.057h15.624c0.582,0,1.058-0.477,1.058-1.057V19.038H269.265z
		"/>
</g>
<polygon fill="none" stroke="#FFFFFF" stroke-miterlimit="10" points="245.001,24.5 236.25,16.919 236.25,20.989 225.873,20.989 
	225.873,27.195 236.25,27.195 236.25,32.08 "/>
<polygon fill="none" stroke="#FFFFFF" stroke-miterlimit="10" points="62.126,24.5 53.376,16.92 53.376,20.988 43,20.988 43,27.195 
	53.376,27.195 53.376,32.08 "/>
<g>
	<path fill="#FFFFFF" d="M90.352,38.902H75.731c-3.818,0-6.926-3.107-6.926-6.928V17.025c0-3.819,3.106-6.928,6.926-6.928h14.621
		c3.818,0,6.927,3.107,6.927,6.928v14.951C97.279,35.795,94.171,38.902,90.352,38.902z M75.731,12.32
		c-2.594,0-4.704,2.111-4.704,4.705v14.951c0,2.594,2.11,4.705,4.704,4.705h14.621c2.594,0,4.705-2.111,4.705-4.705V17.025
		c0-2.594-2.111-4.705-4.705-4.705H75.731z"/>
</g>
<g>
	<path fill="#FFFFFF" d="M83.29,26.057h-5.673c-1.856,0-3.367-1.51-3.367-3.367v-5.061c0-1.856,1.511-3.367,3.367-3.367h3.622
		c0.613,0,1.111,0.498,1.111,1.111s-0.498,1.111-1.111,1.111h-3.622c-0.632,0-1.146,0.514-1.146,1.145v5.061
		c0,0.633,0.514,1.146,1.146,1.146h5.673c0.632,0,1.145-0.514,1.145-1.146v-2.818c0-0.613,0.498-1.111,1.111-1.111
		s1.111,0.498,1.111,1.111v2.818C86.657,24.547,85.147,26.057,83.29,26.057z"/>
</g>
<g>
	<path fill="#FFFFFF" d="M80.594,22.727c-0.327,0-0.651-0.143-0.871-0.418l-1.854-2.33c-0.382-0.48-0.302-1.18,0.178-1.561
		c0.48-0.382,1.181-0.303,1.561,0.178l1.854,2.33c0.383,0.479,0.303,1.178-0.178,1.561C81.081,22.648,80.836,22.727,80.594,22.727z"
		/>
</g>
<g>
	<path fill="#FFFFFF" d="M80.592,22.727c-0.139,0-0.279-0.025-0.416-0.08c-0.569-0.23-0.844-0.879-0.613-1.447
		c0.074-0.182,1.852-4.49,5.76-7.297c0.498-0.357,1.191-0.246,1.551,0.254c0.357,0.498,0.244,1.192-0.254,1.551
		c-3.392,2.436-4.981,6.289-4.996,6.326C81.448,22.465,81.031,22.727,80.592,22.727z"/>
</g>
<g>
	<path fill="#FFFFFF" d="M90.723,29.76H75.36c-0.613,0-1.11-0.498-1.11-1.111s0.497-1.111,1.11-1.111h15.363
		c0.613,0,1.111,0.498,1.111,1.111S91.336,29.76,90.723,29.76z"/>
</g>
<g>
	<path fill="#FFFFFF" d="M84.118,33.463H75.36c-0.613,0-1.11-0.498-1.11-1.111s0.497-1.111,1.11-1.111h8.758
		c0.613,0,1.111,0.498,1.111,1.111S84.731,33.463,84.118,33.463z"/>
</g>
<polygon fill="none" stroke="#FFFFFF" stroke-miterlimit="10" points="123.084,24.5 114.334,16.92 114.334,20.988 103.958,20.988 
	103.958,27.195 114.334,27.195 114.334,32.08 "/>
<g>
	<path fill="#FFFFFF" d="M151.31,38.902h-14.621c-3.818,0-6.926-3.107-6.926-6.928V17.025c0-3.819,3.106-6.928,6.926-6.928h14.621
		c3.818,0,6.927,3.107,6.927,6.928v14.951C158.237,35.795,155.129,38.902,151.31,38.902z M136.689,12.32
		c-2.594,0-4.704,2.111-4.704,4.705v14.951c0,2.594,2.11,4.705,4.704,4.705h14.621c2.594,0,4.705-2.111,4.705-4.705V17.025
		c0-2.594-2.111-4.705-4.705-4.705H136.689z"/>
</g>
<g>
	<path fill="#FFFFFF" d="M144.248,26.057h-5.673c-1.856,0-3.367-1.51-3.367-3.367v-5.061c0-1.856,1.511-3.367,3.367-3.367h3.622
		c0.613,0,1.111,0.498,1.111,1.111s-0.498,1.111-1.111,1.111h-3.622c-0.632,0-1.146,0.514-1.146,1.145v5.061
		c0,0.633,0.514,1.146,1.146,1.146h5.673c0.632,0,1.145-0.514,1.145-1.146v-2.818c0-0.613,0.498-1.111,1.111-1.111
		s1.111,0.498,1.111,1.111v2.818C147.615,24.547,146.105,26.057,144.248,26.057z"/>
</g>
<g>
	<path fill="#FFFFFF" d="M141.552,22.727c-0.327,0-0.651-0.143-0.871-0.418l-1.854-2.33c-0.382-0.48-0.302-1.18,0.178-1.561
		c0.48-0.382,1.181-0.303,1.561,0.178l1.854,2.33c0.383,0.479,0.303,1.178-0.178,1.561
		C142.039,22.648,141.794,22.727,141.552,22.727z"/>
</g>
<g>
	<path fill="#FFFFFF" d="M141.55,22.727c-0.139,0-0.279-0.025-0.416-0.08c-0.569-0.23-0.844-0.879-0.613-1.447
		c0.074-0.182,1.852-4.49,5.76-7.297c0.498-0.357,1.191-0.246,1.551,0.254c0.357,0.498,0.244,1.192-0.254,1.551
		c-3.392,2.436-4.981,6.289-4.996,6.326C142.406,22.465,141.989,22.727,141.55,22.727z"/>
</g>
<g>
	<path fill="#FFFFFF" d="M151.681,29.76h-15.363c-0.613,0-1.11-0.498-1.11-1.111s0.497-1.111,1.11-1.111h15.363
		c0.613,0,1.111,0.498,1.111,1.111S152.294,29.76,151.681,29.76z"/>
</g>
<g>
	<path fill="#FFFFFF" d="M145.076,33.463h-8.758c-0.613,0-1.11-0.498-1.11-1.111s0.497-1.111,1.11-1.111h8.758
		c0.613,0,1.111,0.498,1.111,1.111S145.689,33.463,145.076,33.463z"/>
</g>
<polygon fill="none" stroke="#FFFFFF" stroke-miterlimit="10" points="184.042,24.5 175.292,16.92 175.292,20.988 164.916,20.988 
	164.916,27.195 175.292,27.195 175.292,32.08 "/>
<g>
	<path fill="#FFFFFF" d="M212.268,38.902h-14.621c-3.818,0-6.926-3.107-6.926-6.928V17.025c0-3.819,3.106-6.928,6.926-6.928h14.621
		c3.818,0,6.927,3.107,6.927,6.928v14.951C219.195,35.795,216.087,38.902,212.268,38.902z M197.647,12.32
		c-2.594,0-4.704,2.111-4.704,4.705v14.951c0,2.594,2.11,4.705,4.704,4.705h14.621c2.594,0,4.705-2.111,4.705-4.705V17.025
		c0-2.594-2.111-4.705-4.705-4.705H197.647z"/>
</g>
<g>
	<path fill="#FFFFFF" d="M205.206,26.057h-5.673c-1.856,0-3.367-1.51-3.367-3.367v-5.061c0-1.856,1.511-3.367,3.367-3.367h3.622
		c0.613,0,1.111,0.498,1.111,1.111s-0.498,1.111-1.111,1.111h-3.622c-0.632,0-1.146,0.514-1.146,1.145v5.061
		c0,0.633,0.514,1.146,1.146,1.146h5.673c0.632,0,1.145-0.514,1.145-1.146v-2.818c0-0.613,0.498-1.111,1.111-1.111
		s1.111,0.498,1.111,1.111v2.818C208.573,24.547,207.063,26.057,205.206,26.057z"/>
</g>
<g>
	<path fill="#FFFFFF" d="M202.51,22.727c-0.327,0-0.651-0.143-0.871-0.418l-1.854-2.33c-0.382-0.48-0.302-1.18,0.178-1.561
		c0.48-0.382,1.181-0.303,1.561,0.178l1.854,2.33c0.383,0.479,0.303,1.178-0.178,1.561C202.997,22.648,202.752,22.727,202.51,22.727
		z"/>
</g>
<g>
	<path fill="#FFFFFF" d="M202.508,22.727c-0.139,0-0.279-0.025-0.416-0.08c-0.569-0.23-0.844-0.879-0.613-1.447
		c0.074-0.182,1.852-4.49,5.76-7.297c0.498-0.357,1.191-0.246,1.551,0.254c0.357,0.498,0.244,1.192-0.254,1.551
		c-3.392,2.436-4.981,6.289-4.996,6.326C203.364,22.465,202.947,22.727,202.508,22.727z"/>
</g>
<g>
	<path fill="#FFFFFF" d="M212.639,29.76h-15.363c-0.613,0-1.11-0.498-1.11-1.111s0.497-1.111,1.11-1.111h15.363
		c0.613,0,1.111,0.498,1.111,1.111S213.252,29.76,212.639,29.76z"/>
</g>
<g>
	<path fill="#FFFFFF" d="M206.034,33.463h-8.758c-0.613,0-1.11-0.498-1.11-1.111s0.497-1.111,1.11-1.111h8.758
		c0.613,0,1.111,0.498,1.111,1.111S206.647,33.463,206.034,33.463z"/>
</g>
</svg>
