<?xml version="1.0" encoding="utf-8"?>
<!-- Generator: Adobe Illustrator 15.0.0, SVG Export Plug-In . SVG Version: 6.00 Build 0)  -->
<!DOCTYPE svg PUBLIC "-//W3C//DTD SVG 1.1//EN" "http://www.w3.org/Graphics/SVG/1.1/DTD/svg11.dtd">
<svg version="1.1" id="Layer_1" xmlns="http://www.w3.org/2000/svg" xmlns:xlink="http://www.w3.org/1999/xlink" x="0px" y="0px"
	 width="77px" height="84px" viewBox="0 0 77 84" enable-background="new 0 0 77 84" xml:space="preserve">
<g id="Head_1_">
	<path fill="#FFFFFF" d="M38.501,20.2c13.479,0,24.443,10.966,24.443,24.444S51.979,69.088,38.501,69.088
		S14.056,58.123,14.056,44.644S25.022,20.2,38.501,20.2 M38.501,14.274c-16.773,0-30.371,13.596-30.371,30.37
		s13.598,30.37,30.371,30.37S68.87,61.418,68.87,44.644S55.274,14.274,38.501,14.274L38.501,14.274z"/>
</g>
<path id="Happy_1_" fill="#FFFFFF" d="M50.309,55.17c-1.061,4.771-6.003,8.381-11.937,8.381c-5.938,0-10.879-3.611-11.938-8.383"/>
<circle id="Eye_2_" fill="#FFFFFF" cx="29.751" cy="38.789" r="4.831"/>
<circle id="Eye_1_" fill="#FFFFFF" cx="47.25" cy="38.788" r="4.83"/>
</svg>
