<?xml version="1.0" encoding="utf-8"?>
<!-- Generator: Adobe Illustrator 15.0.0, SVG Export Plug-In . SVG Version: 6.00 Build 0)  -->
<!DOCTYPE svg PUBLIC "-//W3C//DTD SVG 1.1//EN" "http://www.w3.org/Graphics/SVG/1.1/DTD/svg11.dtd">
<svg version="1.1" id="Layer_1" xmlns="http://www.w3.org/2000/svg" xmlns:xlink="http://www.w3.org/1999/xlink" x="0px" y="0px"
	 width="420.832px" height="198.797px" viewBox="0 0 420.832 198.797" enable-background="new 0 0 420.832 198.797"
	 xml:space="preserve">
<g>
	<g>
		<path fill="#FFFFFF" d="M343.273,84.829c0,3.516-2.877,6.394-6.394,6.394H94.253c-3.516,0-6.393-2.877-6.393-6.394V53.501
			c0-3.516,2.877-6.393,6.393-6.393H336.88c3.517,0,6.394,2.877,6.394,6.393V84.829z"/>
	</g>
	<g>
		<path fill="#1D1D1B" d="M336.88,92.5H94.253c-4.23,0-7.672-3.441-7.672-7.672V53.501c0-4.23,3.441-7.672,7.672-7.672H336.88
			c4.23,0,7.672,3.441,7.672,7.672v31.328C344.552,89.059,341.11,92.5,336.88,92.5z M94.253,48.386c-2.82,0-5.115,2.294-5.115,5.115
			v31.328c0,2.82,2.294,5.115,5.115,5.115H336.88c2.82,0,5.114-2.294,5.114-5.115V53.501c0-2.82-2.294-5.115-5.114-5.115H94.253z"/>
	</g>
</g>
<g>
	<path fill="#1D1D1B" d="M111.11,78.227c-0.572-0.252-1.077-0.599-1.517-1.04c-0.44-0.439-0.792-0.945-1.054-1.517
		c-0.263-0.571-0.393-1.175-0.393-1.813V62.281c0-0.6,0.126-1.185,0.379-1.756s0.595-1.077,1.025-1.517
		c0.431-0.44,0.937-0.796,1.518-1.068c0.581-0.271,1.198-0.407,1.854-0.407h4.468c0.655,0,1.273,0.136,1.854,0.407
		c0.581,0.272,1.086,0.628,1.518,1.068c0.43,0.44,0.772,0.946,1.025,1.517s0.379,1.157,0.379,1.756v11.577
		c0,0.637-0.131,1.241-0.394,1.813s-0.614,1.077-1.053,1.517c-0.441,0.441-0.946,0.788-1.518,1.04
		c-0.572,0.253-1.176,0.379-1.813,0.379h-4.468C112.286,78.606,111.682,78.479,111.11,78.227z M117.503,59.864h-4.692v16.381h4.692
		V59.864z"/>
	<path fill="#1D1D1B" d="M137.944,62.632c0.59,0.272,1.105,0.632,1.546,1.082c0.44,0.45,0.787,0.965,1.04,1.545
		c0.253,0.582,0.379,1.171,0.379,1.771v11.577h-4.665V64.557h-4.692v14.049h-4.665V62.225h9.16
		C136.722,62.225,137.354,62.361,137.944,62.632z"/>
	<path fill="#1D1D1B" d="M150.294,76.246h4.355c0.337,0,0.665-0.061,0.984-0.183c0.318-0.122,0.599-0.285,0.842-0.492
		c0.243-0.206,0.44-0.449,0.59-0.73c0.15-0.281,0.225-0.59,0.225-0.927h2.304c0,0.618-0.14,1.208-0.421,1.771
		c-0.281,0.562-0.651,1.063-1.11,1.502c-0.459,0.441-0.979,0.788-1.56,1.04c-0.581,0.253-1.171,0.379-1.77,0.379h-4.355
		c-0.656,0-1.269-0.141-1.84-0.421c-0.572-0.281-1.073-0.65-1.504-1.11c-0.431-0.459-0.772-0.979-1.025-1.56
		c-0.253-0.581-0.379-1.161-0.379-1.742v-6.744c0-0.599,0.126-1.189,0.379-1.771c0.252-0.58,0.599-1.096,1.04-1.545
		c0.44-0.45,0.945-0.81,1.517-1.082c0.572-0.271,1.175-0.407,1.813-0.407h4.355c0.674,0,1.311,0.136,1.91,0.407
		c0.6,0.272,1.115,0.632,1.546,1.082c0.431,0.45,0.772,0.965,1.026,1.545c0.252,0.582,0.379,1.171,0.379,1.771v4.552h-9.301V76.246z
		 M154.902,64.528h-4.608v4.721h4.608V64.528z"/>
	<path fill="#1D1D1B" d="M180.219,76.246c0.356,0,0.693-0.075,1.012-0.225c0.319-0.15,0.594-0.347,0.829-0.59
		c0.234-0.243,0.417-0.52,0.548-0.829c0.13-0.309,0.196-0.632,0.196-0.969h2.333c0,0.618-0.141,1.227-0.421,1.826
		c-0.281,0.6-0.651,1.129-1.11,1.587c-0.459,0.459-0.979,0.833-1.56,1.125c-0.581,0.291-1.171,0.435-1.77,0.435h-2.22
		c-0.6,0-1.185-0.136-1.756-0.407c-0.572-0.271-1.078-0.632-1.518-1.082s-0.796-0.964-1.067-1.545
		c-0.272-0.58-0.408-1.18-0.408-1.798v-6.744c0-0.599,0.135-1.189,0.408-1.771c0.271-0.58,0.632-1.096,1.082-1.545
		s0.956-0.81,1.517-1.082c0.562-0.271,1.143-0.407,1.743-0.407h2.22c0.599,0,1.189,0.14,1.77,0.421
		c0.581,0.281,1.1,0.651,1.56,1.109c0.458,0.46,0.829,0.989,1.11,1.588c0.281,0.6,0.421,1.208,0.421,1.827h-2.333
		c0-0.318-0.07-0.632-0.21-0.941s-0.328-0.59-0.562-0.843c-0.234-0.252-0.505-0.458-0.815-0.618
		c-0.309-0.159-0.642-0.239-0.998-0.239h-2.248v11.717H180.219z"/>
	<path fill="#1D1D1B" d="M189.829,78.606V57.532h4.664v21.074H189.829z"/>
	<path fill="#1D1D1B" d="M199.186,59.864v-2.333h4.664v2.333H199.186z M199.186,78.606V62.225h4.664v16.381H199.186z"/>
	<path fill="#1D1D1B" d="M215.454,76.246c0.356,0,0.693-0.075,1.012-0.225s0.595-0.347,0.829-0.59
		c0.234-0.243,0.417-0.52,0.548-0.829c0.131-0.309,0.197-0.632,0.197-0.969h2.332c0,0.618-0.141,1.227-0.422,1.826
		c-0.28,0.6-0.651,1.129-1.109,1.587c-0.459,0.459-0.979,0.833-1.56,1.125c-0.581,0.291-1.171,0.435-1.771,0.435h-2.22
		c-0.599,0-1.185-0.136-1.756-0.407c-0.572-0.271-1.078-0.632-1.518-1.082s-0.796-0.964-1.068-1.545
		c-0.271-0.58-0.407-1.18-0.407-1.798v-6.744c0-0.599,0.136-1.189,0.407-1.771c0.271-0.58,0.632-1.096,1.082-1.545
		s0.956-0.81,1.518-1.082c0.562-0.271,1.143-0.407,1.742-0.407h2.22c0.6,0,1.189,0.14,1.771,0.421c0.58,0.281,1.1,0.651,1.56,1.109
		c0.458,0.46,0.829,0.989,1.109,1.588c0.281,0.6,0.422,1.208,0.422,1.827h-2.332c0-0.318-0.071-0.632-0.211-0.941
		c-0.141-0.309-0.328-0.59-0.562-0.843c-0.234-0.252-0.505-0.458-0.815-0.618c-0.309-0.159-0.642-0.239-0.998-0.239h-2.248v11.717
		H215.454z"/>
	<path fill="#1D1D1B" d="M239.058,62.225l-8.149,8.177l8.149,8.317h-4.552l-4.777-4.805v4.692h-4.665V57.532h4.665v9.47l4.749-4.777
		H239.058z"/>
	<path fill="#1D1D1B" d="M257.434,62.225h4.552c0.693,0,1.334,0.136,1.925,0.407c0.59,0.272,1.1,0.628,1.531,1.068
		c0.431,0.44,0.763,0.946,0.998,1.517c0.233,0.572,0.351,1.167,0.351,1.785v6.856c0,0.6-0.108,1.185-0.323,1.756
		c-0.216,0.571-0.53,1.077-0.942,1.517c-0.412,0.44-0.918,0.797-1.517,1.068c-0.6,0.271-1.274,0.407-2.023,0.407h-9.217V57.532
		h4.665V62.225z M262.126,76.246V64.557h-4.692v11.689H262.126z"/>
	<path fill="#1D1D1B" d="M274.447,78.241c-0.59-0.243-1.105-0.581-1.545-1.012c-0.44-0.431-0.782-0.937-1.025-1.517
		c-0.245-0.581-0.366-1.199-0.366-1.854V62.225h4.665v14.049h4.692V62.225h4.665v16.381h-9.188
		C275.669,78.606,275.038,78.484,274.447,78.241z"/>
	<path fill="#1D1D1B" d="M290.252,59.864v-2.333h4.664v2.333H290.252z M290.252,78.606V62.225h4.664v16.381H290.252z"/>
	<path fill="#1D1D1B" d="M299.609,78.606V57.532h4.664v21.074H299.609z"/>
	<path fill="#1D1D1B" d="M322.987,78.606h-9.188c-0.6,0-1.189-0.136-1.77-0.407c-0.582-0.271-1.096-0.627-1.545-1.068
		c-0.45-0.44-0.816-0.946-1.096-1.517c-0.282-0.571-0.424-1.157-0.424-1.756v-6.856c0-0.618,0.142-1.213,0.424-1.785
		c0.279-0.571,0.646-1.077,1.096-1.517c0.449-0.44,0.963-0.796,1.545-1.068c0.58-0.271,1.17-0.407,1.77-0.407h4.523v-4.693h4.665
		V78.606z M313.631,64.557v11.689h4.691V64.557H313.631z"/>
</g>
<path fill="none" stroke="#1D1D1B" stroke-miterlimit="10" d="M337.359,80.833c0,3.517-2.877,6.394-6.394,6.394H100.167
	c-3.517,0-6.394-2.877-6.394-6.394V57.497c0-3.517,2.877-6.394,6.394-6.394h230.798c3.517,0,6.394,2.877,6.394,6.394V80.833z"/>
<g>
	<polygon fill="#1D1D1B" points="237.096,110.245 247.141,110.245 247.141,113.708 250.143,113.708 250.143,85.073 253.838,85.073 
		253.838,81.84 260.305,81.84 260.305,85.073 264.115,85.073 264.115,97.89 270.465,97.89 270.465,101.123 280.049,101.123 
		280.049,104.586 286.747,104.586 286.747,107.705 289.866,107.705 289.866,111.054 293.561,111.054 293.561,133.338 
		289.749,133.338 289.749,143.384 286.632,143.384 286.632,152.968 253.492,152.968 253.492,143.384 250.143,143.384 
		250.143,136.803 247.026,136.803 247.026,130.336 243.792,130.336 243.792,123.871 240.56,123.871 240.56,120.406 237.096,120.406 
			"/>
	<polygon fill="#FFFFFF" points="246.68,116.942 250.028,116.942 250.028,127.912 253.724,127.912 253.724,85.073 260.305,85.073 
		260.305,114.518 263.885,114.518 263.885,101.354 270.465,101.354 270.465,114.055 273.814,114.055 273.814,104.702 
		280.049,104.702 280.049,117.172 283.168,117.172 283.168,107.82 286.747,107.82 286.747,110.938 289.866,110.938 289.866,133.338 
		286.518,133.338 286.518,143.384 283.398,143.384 283.398,149.619 256.725,149.619 256.725,143.384 253.492,143.384 
		253.492,136.688 250.143,136.688 250.143,130.106 247.026,130.106 247.026,123.524 243.792,123.524 243.792,120.175 
		240.906,120.175 240.906,113.708 246.795,113.708 	"/>
</g>
</svg>
