<?xml version="1.0" encoding="utf-8"?>
<!-- Generator: Adobe Illustrator 15.0.0, SVG Export Plug-In . SVG Version: 6.00 Build 0)  -->
<!DOCTYPE svg PUBLIC "-//W3C//DTD SVG 1.1//EN" "http://www.w3.org/Graphics/SVG/1.1/DTD/svg11.dtd">
<svg version="1.1" id="Layer_1" xmlns="http://www.w3.org/2000/svg" xmlns:xlink="http://www.w3.org/1999/xlink" x="0px" y="0px"
	 width="454px" height="82px" viewBox="0 0 454 82" enable-background="new 0 0 454 82" xml:space="preserve">
<g>
	<path fill="#FFFFFF" d="M279.029,6.67v13.949h13.645C287.387,14.875,283.504,10.913,279.029,6.67z"/>
	<path fill="#FFFFFF" d="M275.852,23.794v-1.681v-1.495V5.71c-0.184-0.018-0.367-0.036-0.541-0.036h-34.951
		c-1.85,0-3.363,1.513-3.363,3.363v64.262c0,1.85,1.514,3.363,3.363,3.363h49.689c1.852,0,3.363-1.514,3.363-3.363V23.794H275.852z"
		/>
</g>
<g>
	<path fill="#FFFFFF" d="M423.498,26.53v5.918h5.789C427.045,30.012,425.396,28.33,423.498,26.53z"/>
	<path fill="#FFFFFF" d="M422.148,33.796v-0.714v-0.634v-6.325c-0.076-0.008-0.154-0.016-0.229-0.016h-14.83
		c-0.783,0-1.426,0.643-1.426,1.427V54.8c0,0.785,0.643,1.429,1.426,1.429h21.084c0.785,0,1.428-0.644,1.428-1.429V33.796H422.148z"
		/>
</g>
<g>
	<g>
		<path fill="#FFFFFF" d="M15.88,7.704v3.474h3.399C17.962,9.748,16.995,8.761,15.88,7.704z"/>
		<path fill="#FFFFFF" d="M15.089,11.969v-0.418v-0.373V7.465c-0.046-0.004-0.092-0.009-0.135-0.009H6.248
			c-0.46,0-0.837,0.377-0.837,0.838V24.3c0,0.461,0.377,0.838,0.837,0.838h12.377c0.46,0,0.837-0.377,0.837-0.838V11.969H15.089z"/>
	</g>
	<g>
		<path fill="#FFFFFF" d="M15.88,33.315v3.474h3.399C17.962,35.358,16.995,34.372,15.88,33.315z"/>
		<path fill="#FFFFFF" d="M15.089,37.58v-0.418v-0.373v-3.713c-0.046-0.004-0.092-0.009-0.135-0.009H6.248
			c-0.46,0-0.837,0.377-0.837,0.837V49.91c0,0.461,0.377,0.838,0.837,0.838h12.377c0.46,0,0.837-0.377,0.837-0.838V37.58H15.089z"/>
	</g>
	<g>
		<path fill="#FFFFFF" d="M15.88,60.648v3.474h3.399C17.962,62.691,16.995,61.705,15.88,60.648z"/>
		<path fill="#FFFFFF" d="M15.089,64.913v-0.419v-0.372v-3.714c-0.046-0.004-0.092-0.008-0.135-0.008H6.248
			c-0.46,0-0.837,0.377-0.837,0.836v16.006c0,0.462,0.377,0.839,0.837,0.839h12.377c0.46,0,0.837-0.377,0.837-0.839V64.913H15.089z"
			/>
	</g>
	<g>
		<path fill="#FFFFFF" d="M38.164,60.648v3.474h3.398C40.245,62.691,39.279,61.705,38.164,60.648z"/>
		<path fill="#FFFFFF" d="M37.373,64.913v-0.419v-0.372v-3.714c-0.046-0.004-0.092-0.008-0.135-0.008h-8.706
			c-0.46,0-0.837,0.377-0.837,0.836v16.006c0,0.462,0.377,0.839,0.837,0.839h12.377c0.46,0,0.837-0.377,0.837-0.839V64.913H37.373z"
			/>
	</g>
	<g>
		<path fill="#FFFFFF" d="M38.164,33.315v3.474h3.398C40.245,35.358,39.279,34.372,38.164,33.315z"/>
		<path fill="#FFFFFF" d="M37.373,37.58v-0.418v-0.373v-3.713c-0.046-0.004-0.092-0.009-0.135-0.009h-8.706
			c-0.46,0-0.837,0.377-0.837,0.837V49.91c0,0.461,0.377,0.838,0.837,0.838h12.377c0.46,0,0.837-0.377,0.837-0.838V37.58H37.373z"/>
	</g>
	<g>
		<path fill="#FFFFFF" d="M38.164,7.704v3.474h3.398C40.245,9.748,39.279,8.761,38.164,7.704z"/>
		<path fill="#FFFFFF" d="M37.373,11.969v-0.418v-0.373V7.465c-0.046-0.004-0.092-0.009-0.135-0.009h-8.706
			c-0.46,0-0.837,0.377-0.837,0.837v16.006c0,0.461,0.377,0.838,0.837,0.838h12.377c0.46,0,0.837-0.377,0.837-0.838v-12.33H37.373z"
			/>
	</g>
</g>
<g>
	<circle fill="#95CA71" cx="177.576" cy="41.168" r="20"/>
	<text transform="matrix(1 0 0 1 161.5752 43.2837)" fill="#221F1F" font-family="'SegoeUI-Semibold'" font-size="10">concat</text>
</g>
<g>
	<path fill="#95CA71" d="M118.191,26.172c-3.591-3.433-8.447-5.554-13.808-5.554c-11.046,0-20,8.954-20,20c0,11.045,8.954,20,20,20
		c5.36,0,10.216-2.121,13.808-5.555l-14.446-14.446L118.191,26.172z M102.94,27.58c0-0.552,0.448-1,1-1s1,0.448,1,1s-0.448,1-1,1
		S102.94,28.132,102.94,27.58z"/>
	
		<text transform="matrix(0.7071 0.7071 -0.7071 0.7071 87.5142 34.0903)" fill="#221F1F" font-family="'SegoeUI-Semibold'" font-size="6.6066">preprocess</text>
</g>
<polygon fill="none" stroke="#FFFFFF" stroke-miterlimit="10" points="74.635,41.908 65.884,34.328 65.884,38.396 55.507,38.396 
	55.507,44.604 65.884,44.604 65.884,49.488 "/>
<polygon fill="none" stroke="#FFFFFF" stroke-miterlimit="10" points="146.717,41.168 137.966,33.588 137.966,37.657 
	127.589,37.657 127.589,43.863 137.966,43.863 137.966,48.748 "/>
<polygon fill="none" stroke="#FFFFFF" stroke-miterlimit="10" points="226.723,41.168 217.972,33.588 217.972,37.657 
	207.594,37.657 207.594,43.863 217.972,43.863 217.972,48.748 "/>
<polygon fill="none" stroke="#FFFFFF" stroke-miterlimit="10" points="321.389,41.168 312.639,33.588 312.639,37.657 
	302.262,37.657 302.262,43.863 312.639,43.863 312.639,48.748 "/>
<polygon fill="none" stroke="#FFFFFF" stroke-miterlimit="10" points="394.287,41.168 385.537,33.588 385.537,37.657 375.16,37.657 
	375.16,43.863 385.537,43.863 385.537,48.748 "/>
<g>
	<circle fill="#95CA71" cx="349.16" cy="41.168" r="20"/>
	<text transform="matrix(1 0 0 1 335.1592 43.2837)" fill="#221F1F" font-family="'SegoeUI-Semibold'" font-size="10">minify</text>
</g>
</svg>
