<?xml version="1.0" encoding="utf-8"?>
<!-- Generator: Adobe Illustrator 15.0.0, SVG Export Plug-In . SVG Version: 6.00 Build 0)  -->
<!DOCTYPE svg PUBLIC "-//W3C//DTD SVG 1.1//EN" "http://www.w3.org/Graphics/SVG/1.1/DTD/svg11.dtd">
<svg version="1.1" xmlns="http://www.w3.org/2000/svg" xmlns:xlink="http://www.w3.org/1999/xlink" x="0px" y="0px"
	 width="595.279px" height="841.89px" viewBox="0 0 595.279 841.89" enable-background="new 0 0 595.279 841.89"
	 xml:space="preserve">
<g id="Layer_2_1_">
	<rect x="-601.86" y="-92.555" fill="#404041" stroke="#231F20" stroke-miterlimit="10" width="1538" height="1092"/>
</g>
<g id="Layer_1">
	<g>
		<polyline fill="none" stroke="#FFF584" stroke-width="3" stroke-miterlimit="10" points="23.333,291.033 23.333,316.388 
			252.667,316.287 252.667,303.453 		"/>
		<g>
			<circle fill="#96CB71" cx="174" cy="283.453" r="20"/>
			<text transform="matrix(1 0 0 1 159.9998 285.5698)" fill="#231F20" font-family="'SegoeUI-Semibold'" font-size="10">uglify</text>
		</g>
		<g>
			<circle fill="#96CB71" cx="96.75" cy="283.453" r="20"/>
			<text transform="matrix(1 0 0 1 80.7498 285.5698)" fill="#231F20" font-family="'SegoeUI-Semibold'" font-size="10">concat</text>
		</g>
		<g>
			<polygon fill="#C0E7FA" points="39,283.453 0,307.888 0,259.018 			"/>
			<text transform="matrix(1 0 0 1 5.7498 285.5698)" fill="#231F20" font-family="'SegoeUI-Semibold'" font-size="10">src</text>
		</g>
		<g>
			<polygon fill="#FFF584" points="252.95,300.671 259.333,310.86 246.566,310.86 			"/>
		</g>
		<g>
			<polygon fill="#C0E7FA" points="348,285.57 309,310.005 309,261.135 			"/>
			<text transform="matrix(1 0 0 1 313.8352 287.686)" fill="#231F20" font-family="'SegoeUI-Semibold'" font-size="10">dest</text>
		</g>
		<g>
			<circle fill="#FFF584" cx="251.25" cy="283.453" r="20"/>
			<text transform="matrix(1 0 0 1 236.3328 279.5698)" fill="#231F20" font-family="'SegoeUI-Semibold'" font-size="10">source</text>
			<text transform="matrix(1 0 0 1 241.199 291.5698)" fill="#231F20" font-family="'SegoeUI-Semibold'" font-size="10">map</text>
		</g>
		<polygon fill="none" stroke="#FFFFFF" stroke-miterlimit="10" points="67.689,283.453 58.938,275.873 58.938,279.943 
			48.561,279.943 48.561,286.149 58.938,286.149 58.938,291.033 		"/>
		<polygon fill="none" stroke="#FFFFFF" stroke-miterlimit="10" points="144.939,283.453 136.188,275.873 136.188,279.943 
			125.811,279.943 125.811,286.149 136.188,286.149 136.188,291.033 		"/>
		<polygon fill="none" stroke="#FFFFFF" stroke-miterlimit="10" points="222.189,283.453 213.438,275.873 213.438,279.943 
			203.061,279.943 203.061,286.149 213.438,286.149 213.438,291.033 		"/>
		<polygon fill="none" stroke="#FFFFFF" stroke-miterlimit="10" points="299.439,281.703 290.688,274.123 290.688,278.193 
			280.311,278.193 280.311,284.399 290.688,284.399 290.688,289.283 		"/>
	</g>
	<g>
		<g>
			<circle fill="#96CB71" cx="174" cy="176.136" r="20"/>
			<text transform="matrix(1 0 0 1 159.9998 178.2524)" fill="#231F20" font-family="'SegoeUI-Semibold'" font-size="10">minify</text>
		</g>
		<g>
			<circle fill="#96CB71" cx="96.75" cy="176.136" r="20"/>
			<text transform="matrix(1 0 0 1 80.7498 178.2524)" fill="#231F20" font-family="'SegoeUI-Semibold'" font-size="10">concat</text>
		</g>
		<g>
			<polygon fill="#C0E7FA" points="39,176.136 0,200.571 0,151.701 			"/>
			<text transform="matrix(1 0 0 1 5.7498 178.2524)" fill="#231F20" font-family="'SegoeUI-Semibold'" font-size="10">src</text>
		</g>
		<g>
			<polygon fill="#C0E7FA" points="268,178.253 229,202.688 229,153.818 			"/>
			<text transform="matrix(1 0 0 1 233.8362 180.3687)" fill="#231F20" font-family="'SegoeUI-Semibold'" font-size="10">dest</text>
		</g>
		<polygon fill="none" stroke="#FFFFFF" stroke-miterlimit="10" points="67.689,176.136 58.938,168.556 58.938,172.626 
			48.561,172.626 48.561,178.833 58.938,178.833 58.938,183.716 		"/>
		<polygon fill="none" stroke="#FFFFFF" stroke-miterlimit="10" points="144.939,176.136 136.188,168.556 136.188,172.626 
			125.811,172.626 125.811,178.833 136.188,178.833 136.188,183.716 		"/>
		<polygon fill="none" stroke="#FFFFFF" stroke-miterlimit="10" points="222.189,176.136 213.438,168.556 213.438,172.626 
			203.061,172.626 203.061,178.833 213.438,178.833 213.438,183.716 		"/>
	</g>
	<g>
		<g>
			<path fill="#FFFFFF" d="M199.036,0.996v13.949h13.646C207.395,9.201,203.512,5.239,199.036,0.996z"/>
			<path fill="#FFFFFF" d="M195.86,18.12v-1.681v-1.495V0.036C195.676,0.018,195.492,0,195.319,0h-34.951
				c-1.851,0-3.363,1.513-3.363,3.363v64.262c0,1.849,1.513,3.363,3.363,3.363h49.689c1.851,0,3.363-1.514,3.363-3.363V18.12H195.86
				z"/>
		</g>
		<g>
			<path fill="#FFFFFF" d="M343.506,20.856v5.918h5.789C347.053,24.338,345.404,22.656,343.506,20.856z"/>
			<path fill="#FFFFFF" d="M342.156,28.122v-0.714v-0.634v-6.325c-0.076-0.008-0.153-0.016-0.229-0.016h-14.83
				c-0.783,0-1.426,0.643-1.426,1.427v27.266c0,0.785,0.643,1.428,1.426,1.428h21.084c0.785,0,1.428-0.643,1.428-1.428V28.122
				H342.156z"/>
		</g>
		<g>
			<g>
				<path fill="#FFFFFF" d="M11.469,0.429v3.474h3.399C13.551,2.473,12.584,1.486,11.469,0.429z"/>
				<path fill="#FFFFFF" d="M10.678,4.694V4.276V3.903V0.19c-0.046-0.004-0.092-0.009-0.135-0.009H1.837
					C1.377,0.181,1,0.558,1,1.019v16.006c0,0.461,0.377,0.838,0.837,0.838h12.377c0.46,0,0.837-0.377,0.837-0.838V4.694H10.678z"/>
			</g>
			<g>
				<path fill="#FFFFFF" d="M11.469,26.04v3.474h3.399C13.551,28.083,12.584,27.097,11.469,26.04z"/>
				<path fill="#FFFFFF" d="M10.678,30.305v-0.418v-0.373v-3.713c-0.046-0.004-0.092-0.009-0.135-0.009H1.837
					C1.377,25.792,1,26.169,1,26.629v16.006c0,0.461,0.377,0.838,0.837,0.838h12.377c0.46,0,0.837-0.377,0.837-0.838v-12.33H10.678z
					"/>
			</g>
			<g>
				<path fill="#FFFFFF" d="M11.469,53.373v3.474h3.399C13.551,55.417,12.584,54.43,11.469,53.373z"/>
				<path fill="#FFFFFF" d="M10.678,57.638V57.22v-0.373v-3.713c-0.046-0.004-0.092-0.009-0.135-0.009H1.837
					C1.377,53.125,1,53.502,1,53.962v16.006c0,0.461,0.377,0.838,0.837,0.838h12.377c0.46,0,0.837-0.377,0.837-0.838v-12.33H10.678z
					"/>
			</g>
			<g>
				<path fill="#FFFFFF" d="M33.753,53.373v3.474h3.398C35.834,55.417,34.868,54.43,33.753,53.373z"/>
				<path fill="#FFFFFF" d="M32.962,57.638V57.22v-0.373v-3.713c-0.046-0.004-0.092-0.009-0.135-0.009h-8.706
					c-0.46,0-0.837,0.377-0.837,0.837v16.006c0,0.461,0.377,0.838,0.837,0.838h12.377c0.46,0,0.837-0.377,0.837-0.838v-12.33H32.962
					z"/>
			</g>
			<g>
				<path fill="#FFFFFF" d="M33.753,26.04v3.474h3.398C35.834,28.083,34.868,27.097,33.753,26.04z"/>
				<path fill="#FFFFFF" d="M32.962,30.305v-0.418v-0.373v-3.713c-0.046-0.004-0.092-0.009-0.135-0.009h-8.706
					c-0.46,0-0.837,0.377-0.837,0.837v16.006c0,0.461,0.377,0.838,0.837,0.838h12.377c0.46,0,0.837-0.377,0.837-0.838v-12.33H32.962
					z"/>
			</g>
			<g>
				<path fill="#FFFFFF" d="M33.753,0.429v3.474h3.398C35.834,2.473,34.868,1.486,33.753,0.429z"/>
				<path fill="#FFFFFF" d="M32.962,4.694V4.276V3.903V0.19c-0.046-0.004-0.092-0.009-0.135-0.009h-8.706
					c-0.46,0-0.837,0.377-0.837,0.837v16.006c0,0.461,0.377,0.838,0.837,0.838h12.377c0.46,0,0.837-0.377,0.837-0.838V4.694H32.962z
					"/>
			</g>
		</g>
		<g>
			<circle fill="#96CB71" cx="97.583" cy="35.494" r="20"/>
			<text transform="matrix(1 0 0 1 81.5828 37.6099)" fill="#231F20" font-family="'SegoeUI-Semibold'" font-size="10">concat</text>
		</g>
		<polygon fill="none" stroke="#FFFFFF" stroke-miterlimit="10" points="69.503,35.494 60.752,27.914 60.752,31.983 50.375,31.983 
			50.375,38.19 60.752,38.19 60.752,43.074 		"/>
		<polygon fill="none" stroke="#FFFFFF" stroke-miterlimit="10" points="146.731,35.494 137.98,27.914 137.98,31.983 
			127.602,31.983 127.602,38.19 137.98,38.19 137.98,43.074 		"/>
		<polygon fill="none" stroke="#FFFFFF" stroke-miterlimit="10" points="241.397,35.494 232.646,27.914 232.646,31.983 
			222.269,31.983 222.269,38.19 232.646,38.19 232.646,43.074 		"/>
		<polygon fill="none" stroke="#FFFFFF" stroke-miterlimit="10" points="314.295,35.494 305.545,27.914 305.545,31.983 
			295.167,31.983 295.167,38.19 305.545,38.19 305.545,43.074 		"/>
		<g>
			<circle fill="#96CB71" cx="269.167" cy="35.494" r="20"/>
			<text transform="matrix(1 0 0 1 255.1667 37.6099)" fill="#231F20" font-family="'SegoeUI-Semibold'" font-size="10">minify</text>
		</g>
	</g>
	<g>
		<g>
			<path fill="#FFFFFF" d="M61.001,371.699v19.912H80.48C72.932,383.412,67.39,377.758,61.001,371.699z"/>
			<path fill="#FFFFFF" d="M56.466,396.146v-2.4v-2.135v-21.28c-0.262-0.026-0.524-0.053-0.772-0.053H5.802
				c-2.642,0-4.801,2.161-4.801,4.801v91.734c0,2.641,2.159,4.801,4.801,4.801h70.931c2.642,0,4.801-2.16,4.801-4.801v-70.667
				H56.466z"/>
		</g>
		<text transform="matrix(1 0 0 1 8.3674 419.0117)" fill="#231F20" font-family="'SegoeUI-Semibold'" font-size="22.896">HTML</text>
		<g>
			<g>
				<g>
					<path fill="#FFFFFF" d="M30.037,427.605v7.777h7.609C34.698,432.179,32.532,429.97,30.037,427.605z"/>
					<path fill="#404041" d="M39.059,436.001h-9.642v-9.838l1.046,0.992c2.52,2.389,4.733,4.65,7.639,7.807L39.059,436.001z
						 M30.657,434.763h5.571c-2.059-2.213-3.749-3.945-5.571-5.707V434.763z"/>
				</g>
				<g>
					<path fill="#FFFFFF" d="M28.265,437.154v-0.938v-0.834v-8.313c-0.102-0.01-0.205-0.021-0.302-0.021H8.474
						c-1.031,0-1.875,0.844-1.875,1.877v35.832c0,1.031,0.844,1.875,1.875,1.875h27.708c1.031,0,1.875-0.844,1.875-1.875v-27.604
						H28.265z"/>
					<path fill="#404041" d="M36.182,467.253H8.474c-1.376,0-2.495-1.119-2.495-2.496v-35.832c0-1.377,1.119-2.496,2.495-2.496
						h19.489c0.115,0,0.236,0.012,0.356,0.023l0.558,0.057l0.007,0.561v9.465h9.792v28.223
						C38.677,466.134,37.558,467.253,36.182,467.253z M8.474,427.669c-0.692,0-1.255,0.563-1.255,1.256v35.832
						c0,0.693,0.563,1.256,1.255,1.256h27.708c0.692,0,1.255-0.563,1.255-1.256v-26.984h-9.792v-10.104H8.474z"/>
				</g>
			</g>
			<text transform="matrix(1 0 0 1 16.1125 455.5376)" fill="#231F20" font-family="'SegoeUI-Semibold'" font-size="13.2127">JS</text>
		</g>
		<g>
			<g>
				<g>
					<path fill="#FFFFFF" d="M68.514,427.294v7.777h7.609C73.174,431.871,71.009,429.662,68.514,427.294z"/>
					<path fill="#404041" d="M77.536,435.693h-9.642v-9.84l1.046,0.992c2.521,2.391,4.734,4.652,7.639,7.809L77.536,435.693z
						 M69.134,434.453h5.571c-2.058-2.211-3.749-3.943-5.571-5.707V434.453z"/>
				</g>
				<g>
					<path fill="#FFFFFF" d="M66.742,436.843v-0.938v-0.834v-8.313c-0.102-0.01-0.205-0.02-0.302-0.02H46.951
						c-1.031,0-1.875,0.844-1.875,1.875v35.834c0,1.029,0.844,1.875,1.875,1.875h27.708c1.031,0,1.875-0.846,1.875-1.875v-27.605
						H66.742z"/>
					<path fill="#404041" d="M74.659,466.943H46.951c-1.376,0-2.495-1.119-2.495-2.494v-35.834c0-1.377,1.119-2.496,2.495-2.496
						H66.44c0.115,0,0.235,0.012,0.356,0.023l0.558,0.057l0.008,0.561v9.465h9.792v28.225
						C77.154,465.824,76.034,466.943,74.659,466.943z M46.951,427.359c-0.692,0-1.255,0.563-1.255,1.256v35.834
						c0,0.691,0.563,1.254,1.255,1.254h27.708c0.692,0,1.255-0.563,1.255-1.254v-26.984h-9.792v-10.105H46.951z"/>
				</g>
			</g>
			<text transform="matrix(1 0 0 1 49.5081 456.4116)" fill="#231F20" font-family="'SegoeUI-Semibold'" font-size="13.2127">CSS</text>
		</g>
	</g>
</g>
</svg>
