<?xml version="1.0" encoding="utf-8"?>
<!-- Generator: Adobe Illustrator 15.0.0, SVG Export Plug-In . SVG Version: 6.00 Build 0)  -->
<!DOCTYPE svg PUBLIC "-//W3C//DTD SVG 1.1//EN" "http://www.w3.org/Graphics/SVG/1.1/DTD/svg11.dtd">
<svg version="1.1" id="Layer_1" xmlns="http://www.w3.org/2000/svg" xmlns:xlink="http://www.w3.org/1999/xlink" x="0px" y="0px"
	 width="941.93px" height="141.792px" viewBox="0 0 941.93 141.792" enable-background="new 0 0 941.93 141.792"
	 xml:space="preserve">
<rect x="32.157" y="82.569" fill="#2CBBE1" width="544.674" height="51.628"/>
<rect x="32.157" y="7.596" fill="#FEC900" width="873.9" height="51.627"/>
<g>
	<path fill="#FFFDF1" d="M497.331,115.79v-1.042c0-0.736,0.094-1.376,0.281-1.918c0.186-0.542,0.479-1.053,0.88-1.53
		c0.399-0.476,1.097-1.088,2.091-1.836c0.707-0.544,1.18-0.935,1.411-1.173c0.232-0.238,0.405-0.469,0.521-0.691
		c0.115-0.224,0.173-0.466,0.173-0.725c0-0.863-0.534-1.295-1.604-1.295c-1.086,0-2.115,0.384-3.083,1.15v-3.16
		c0.739-0.362,1.431-0.612,2.073-0.751c0.644-0.14,1.304-0.209,1.98-0.209c1.451,0,2.576,0.335,3.373,1.006
		c0.794,0.668,1.191,1.614,1.191,2.832c0,0.936-0.207,1.729-0.624,2.381c-0.416,0.651-1.189,1.329-2.319,2.035
		c-0.864,0.544-1.438,0.941-1.72,1.191c-0.281,0.251-0.427,0.463-0.434,0.638h5.218v3.095h-9.41V115.79z"/>
	<path fill="#FFFDF1" d="M516.907,115.79v-9.34c-0.434,0.247-0.885,0.436-1.35,0.566c-0.466,0.128-0.994,0.225-1.584,0.284v-2.897
		c0.839-0.139,1.618-0.357,2.343-0.655c0.722-0.299,1.465-0.709,2.223-1.227h2.338v13.269H516.907z"/>
	<path fill="#FFFDF1" d="M532.608,111.398c0,0.888-0.216,1.684-0.647,2.386c-0.433,0.702-1.054,1.251-1.87,1.642
		c-0.813,0.392-1.772,0.588-2.878,0.588c-0.614,0-1.256-0.051-1.924-0.153c-0.667-0.102-1.216-0.231-1.645-0.388v-3.006
		c0.932,0.483,1.916,0.724,2.954,0.724c0.684,0,1.2-0.119,1.553-0.361c0.349-0.241,0.524-0.581,0.524-1.022
		c0-0.954-0.813-1.431-2.441-1.431c-0.813,0-1.568,0.076-2.263,0.227l0.501-7.793h7.548v3.006h-4.473l-0.13,1.82
		c0.359-0.036,0.7-0.057,1.016-0.057c1.305,0,2.325,0.343,3.065,1.029C532.238,109.292,532.608,110.222,532.608,111.398z"/>
	<path fill="#FFFDF1" d="M544.517,108.766c0,2.268-0.545,4.044-1.631,5.324c-1.086,1.283-2.588,1.926-4.501,1.926
		c-1.174,0-2.196-0.171-3.064-0.509v-2.978c0.26,0.182,0.644,0.337,1.15,0.465c0.504,0.131,0.96,0.195,1.362,0.195
		c0.933,0,1.646-0.25,2.139-0.751c0.494-0.501,0.747-1.237,0.761-2.208h-0.057c-0.584,0.724-1.435,1.086-2.554,1.086
		c-0.663,0-1.274-0.165-1.83-0.501c-0.555-0.336-0.99-0.803-1.305-1.402c-0.313-0.602-0.471-1.288-0.471-2.062
		c0-0.952,0.207-1.791,0.62-2.516c0.413-0.724,0.996-1.279,1.752-1.663c0.756-0.387,1.623-0.58,2.604-0.58
		c1.02,0,1.917,0.256,2.693,0.77c0.777,0.513,1.357,1.225,1.747,2.136C544.324,106.41,544.517,107.499,544.517,108.766z
		 M540.585,107.074c0-0.441-0.102-0.817-0.307-1.127c-0.206-0.312-0.479-0.468-0.821-0.468c-0.335,0-0.612,0.132-0.834,0.395
		c-0.22,0.263-0.331,0.668-0.331,1.218c0,0.513,0.109,0.902,0.327,1.166c0.218,0.267,0.491,0.401,0.819,0.401
		c0.373,0,0.657-0.146,0.854-0.44C540.487,107.924,540.585,107.543,540.585,107.074z"/>
	<path fill="#FFFDF1" d="M563.348,111.806c0,1.272-0.461,2.254-1.38,2.946c-0.92,0.69-2.233,1.035-3.939,1.035h-6.095v-12.979h5.675
		c3.547,0,5.319,1.047,5.319,3.143c0,0.453-0.112,0.867-0.335,1.244c-0.225,0.377-0.564,0.707-1.022,0.99
		c-0.455,0.283-0.958,0.477-1.503,0.58v0.036c0.634,0.071,1.201,0.254,1.706,0.547c0.502,0.292,0.891,0.657,1.165,1.095
		C563.21,110.882,563.348,111.335,563.348,111.806z M558.652,106.63c0-0.803-0.65-1.204-1.947-1.204h-0.746v2.453h1.165
		c0.447,0,0.813-0.118,1.1-0.351C558.508,107.297,558.652,106.997,558.652,106.63z M559.071,111.787c0-0.374-0.14-0.681-0.419-0.923
		c-0.28-0.24-0.65-0.361-1.108-0.361h-1.585v2.652h1.343c0.546,0,0.978-0.122,1.295-0.366
		C558.912,112.544,559.071,112.209,559.071,111.787z"/>
</g>
<g>
	<path fill="#FFFDF1" d="M828.04,37.422c0,1.25-0.466,2.217-1.396,2.906c-0.933,0.688-2.266,1.032-3.998,1.032
		c-0.647,0-1.287-0.053-1.922-0.158c-0.632-0.105-1.177-0.245-1.629-0.42v-3.023c0.415,0.242,0.891,0.432,1.425,0.571
		s1.076,0.207,1.621,0.207c0.634,0,1.12-0.108,1.459-0.33c0.338-0.22,0.506-0.535,0.506-0.946c0-0.416-0.209-0.741-0.624-0.977
		c-0.415-0.235-0.996-0.354-1.743-0.354h-1.285v-2.841h1.138c0.752,0,1.305-0.113,1.661-0.338c0.357-0.226,0.535-0.521,0.535-0.883
		c0-0.343-0.133-0.614-0.403-0.815c-0.271-0.2-0.685-0.298-1.244-0.298c-0.863,0-1.726,0.24-2.59,0.724v-2.889
		c1.079-0.435,2.218-0.651,3.409-0.651c1.479,0,2.637,0.293,3.478,0.877c0.836,0.586,1.256,1.397,1.256,2.434
		c0,0.809-0.225,1.488-0.675,2.037c-0.449,0.548-1.083,0.908-1.896,1.077v0.045c0.901,0.121,1.61,0.454,2.133,1.001
		C827.777,35.954,828.04,36.626,828.04,37.422z"/>
	<path fill="#FFFDF1" d="M844.291,28.155v8.182h1.891v2.57h-1.9v2.227h-3.495v-2.227h-5.655v-2.669
		c0.993-1.11,1.981-2.399,2.968-3.864c0.983-1.467,1.783-2.872,2.399-4.218h3.793V28.155z M840.778,36.336v-3.801
		c-0.571,1.225-1.357,2.492-2.356,3.801H840.778z"/>
	<path fill="#FFFDF1" d="M857.428,36.645c0,0.869-0.206,1.663-0.619,2.385c-0.413,0.722-0.996,1.287-1.752,1.697
		c-0.755,0.41-1.592,0.615-2.51,0.615c-1.634,0-2.892-0.528-3.773-1.584c-0.883-1.056-1.323-2.549-1.323-4.48
		c0-1.459,0.267-2.755,0.801-3.888c0.534-1.13,1.285-1.989,2.251-2.575c0.965-0.585,2.113-0.877,3.441-0.877
		c1.02,0,1.839,0.111,2.462,0.334v3.023c-0.616-0.362-1.345-0.542-2.183-0.542c-0.852,0-1.543,0.27-2.073,0.81
		s-0.824,1.253-0.882,2.141h0.058c0.627-0.741,1.524-1.114,2.692-1.114c1.05,0,1.881,0.375,2.494,1.122
		C857.121,34.459,857.428,35.438,857.428,36.645z M853.655,36.817c0-0.477-0.094-0.853-0.285-1.127
		c-0.189-0.275-0.476-0.412-0.861-0.412c-0.365,0-0.65,0.144-0.847,0.43c-0.2,0.286-0.3,0.675-0.3,1.164
		c0,0.459,0.108,0.836,0.322,1.13c0.214,0.296,0.489,0.443,0.824,0.443c0.355,0,0.634-0.146,0.839-0.438
		C853.552,37.715,853.655,37.317,853.655,36.817z"/>
	<path fill="#FFFDF1" d="M867.568,28.155v8.182h1.891v2.57h-1.902v2.227h-3.494v-2.227h-5.655v-2.669
		c0.993-1.11,1.981-2.399,2.968-3.864c0.983-1.467,1.783-2.872,2.399-4.218h3.794V28.155z M864.052,36.336v-3.801
		c-0.571,1.225-1.357,2.492-2.356,3.801H864.052z"/>
	<path fill="#FFFDF1" d="M887.86,37.151c0,1.273-0.46,2.255-1.38,2.946c-0.919,0.691-2.231,1.037-3.94,1.037h-6.094V28.155h5.675
		c3.547,0,5.32,1.047,5.32,3.141c0,0.453-0.112,0.868-0.337,1.245c-0.223,0.376-0.563,0.707-1.02,0.99
		c-0.456,0.283-0.959,0.478-1.505,0.58v0.035c0.633,0.072,1.202,0.255,1.706,0.548c0.502,0.292,0.89,0.657,1.164,1.094
		C887.724,36.226,887.86,36.68,887.86,37.151z M883.163,31.974c0-0.802-0.648-1.203-1.947-1.203h-0.745v2.453h1.165
		c0.447,0,0.813-0.117,1.1-0.349C883.021,32.642,883.163,32.342,883.163,31.974z M883.583,37.132c0-0.375-0.139-0.682-0.42-0.923
		c-0.278-0.241-0.648-0.362-1.107-0.362h-1.585v2.652h1.343c0.547,0,0.978-0.123,1.295-0.367
		C883.426,37.888,883.583,37.555,883.583,37.132z"/>
</g>
</svg>
