<?xml version="1.0" encoding="utf-8"?>
<!-- Generator: Adobe Illustrator 15.0.0, SVG Export Plug-In . SVG Version: 6.00 Build 0)  -->
<!DOCTYPE svg PUBLIC "-//W3C//DTD SVG 1.1//EN" "http://www.w3.org/Graphics/SVG/1.1/DTD/svg11.dtd">
<svg version="1.1" id="Layer_1" xmlns="http://www.w3.org/2000/svg" xmlns:xlink="http://www.w3.org/1999/xlink" x="0px" y="0px"
	 width="272px" height="87px" viewBox="0 0 272 87" enable-background="new 0 0 272 87" xml:space="preserve">
<g>
	<polygon fill="#C1E7FA" points="49.304,41.829 10.304,66.263 10.304,17.394 	"/>
	<text transform="matrix(1 0 0 1 16.0537 43.9448)" fill="#231F20" font-family="'SegoeUI-Semibold'" font-size="10">src</text>
</g>
<g>
	<polygon fill="#C1E7FA" points="262.804,43.946 223.804,68.38 223.804,19.511 	"/>
	<text transform="matrix(1 0 0 1 228.6401 46.062)" fill="#231F20" font-family="'SegoeUI-Semibold'" font-size="10">dest</text>
</g>
<polygon fill="none" stroke="#FFFFFF" stroke-miterlimit="10" points="77.993,41.829 69.242,34.25 69.242,38.319 58.865,38.319 
	58.865,44.526 69.242,44.526 69.242,49.409 "/>
<polygon fill="none" stroke="#FFFFFF" stroke-miterlimit="10" points="216.993,41.829 208.242,34.25 208.242,38.319 197.865,38.319 
	197.865,44.526 208.242,44.526 208.242,49.409 "/>
<g>
	<g>
		<path fill="#FFFFFF" d="M104.354,36.568H89.733c-3.818,0-6.926-3.107-6.926-6.928V14.691c0-3.819,3.106-6.928,6.926-6.928h14.621
			c3.818,0,6.927,3.107,6.927,6.928v14.951C111.281,33.461,108.173,36.568,104.354,36.568z M89.733,9.986
			c-2.594,0-4.704,2.111-4.704,4.705v14.951c0,2.594,2.11,4.705,4.704,4.705h14.621c2.594,0,4.705-2.111,4.705-4.705V14.691
			c0-2.594-2.111-4.705-4.705-4.705H89.733z"/>
	</g>
	<g>
		<path fill="#FFFFFF" d="M97.292,23.723h-5.673c-1.856,0-3.367-1.51-3.367-3.367v-5.061c0-1.856,1.511-3.367,3.367-3.367h3.622
			c0.613,0,1.111,0.498,1.111,1.111s-0.498,1.111-1.111,1.111h-3.622c-0.632,0-1.146,0.514-1.146,1.145v5.061
			c0,0.633,0.514,1.146,1.146,1.146h5.673c0.632,0,1.145-0.514,1.145-1.146v-2.818c0-0.613,0.498-1.111,1.111-1.111
			s1.111,0.498,1.111,1.111v2.818C100.659,22.213,99.149,23.723,97.292,23.723z"/>
	</g>
	<g>
		<path fill="#FFFFFF" d="M94.596,20.393c-0.327,0-0.651-0.143-0.871-0.418l-1.854-2.33c-0.382-0.48-0.302-1.18,0.178-1.561
			c0.48-0.382,1.181-0.303,1.561,0.178l1.854,2.33c0.383,0.479,0.303,1.178-0.178,1.561C95.083,20.314,94.838,20.393,94.596,20.393z
			"/>
	</g>
	<g>
		<path fill="#FFFFFF" d="M94.594,20.393c-0.139,0-0.279-0.025-0.416-0.08c-0.569-0.23-0.844-0.879-0.613-1.447
			c0.074-0.182,1.852-4.49,5.76-7.297c0.498-0.357,1.191-0.246,1.551,0.254c0.357,0.498,0.244,1.192-0.254,1.551
			c-3.392,2.436-4.981,6.289-4.996,6.326C95.45,20.131,95.033,20.393,94.594,20.393z"/>
	</g>
	<g>
		<path fill="#FFFFFF" d="M104.725,27.426H89.362c-0.613,0-1.11-0.498-1.11-1.111s0.497-1.111,1.11-1.111h15.363
			c0.613,0,1.111,0.498,1.111,1.111S105.338,27.426,104.725,27.426z"/>
	</g>
	<g>
		<path fill="#FFFFFF" d="M98.12,31.129h-8.758c-0.613,0-1.11-0.498-1.11-1.111s0.497-1.111,1.11-1.111h8.758
			c0.613,0,1.111,0.498,1.111,1.111S98.733,31.129,98.12,31.129z"/>
	</g>
	<g>
		<path fill="#FFFFFF" d="M104.354,74.973H89.733c-3.818,0-6.926-3.107-6.926-6.928V53.096c0-3.82,3.106-6.928,6.926-6.928h14.621
			c3.818,0,6.927,3.107,6.927,6.928v14.951C111.281,71.866,108.173,74.973,104.354,74.973z M89.733,48.391
			c-2.594,0-4.704,2.111-4.704,4.705v14.951c0,2.594,2.11,4.705,4.704,4.705h14.621c2.594,0,4.705-2.111,4.705-4.705V53.096
			c0-2.594-2.111-4.705-4.705-4.705H89.733z"/>
	</g>
	<g>
		<path fill="#FFFFFF" d="M97.292,62.127h-5.673c-1.856,0-3.367-1.51-3.367-3.367V53.7c0-1.857,1.511-3.367,3.367-3.367h3.622
			c0.613,0,1.111,0.498,1.111,1.111s-0.498,1.111-1.111,1.111h-3.622c-0.632,0-1.146,0.514-1.146,1.145v5.061
			c0,0.633,0.514,1.146,1.146,1.146h5.673c0.632,0,1.145-0.514,1.145-1.146v-2.818c0-0.613,0.498-1.111,1.111-1.111
			s1.111,0.498,1.111,1.111v2.818C100.659,60.618,99.149,62.127,97.292,62.127z"/>
	</g>
	<g>
		<path fill="#FFFFFF" d="M94.596,58.797c-0.327,0-0.651-0.143-0.871-0.418l-1.854-2.33c-0.382-0.48-0.302-1.18,0.178-1.561
			c0.48-0.383,1.181-0.303,1.561,0.178l1.854,2.33c0.383,0.479,0.303,1.178-0.178,1.561C95.083,58.719,94.838,58.797,94.596,58.797z
			"/>
	</g>
	<g>
		<path fill="#FFFFFF" d="M94.594,58.797c-0.139,0-0.279-0.025-0.416-0.08c-0.569-0.23-0.844-0.879-0.613-1.447
			c0.074-0.182,1.852-4.49,5.76-7.297c0.498-0.357,1.191-0.246,1.551,0.254c0.357,0.498,0.244,1.191-0.254,1.551
			c-3.392,2.436-4.981,6.289-4.996,6.326C95.45,58.536,95.033,58.797,94.594,58.797z"/>
	</g>
	<g>
		<path fill="#FFFFFF" d="M104.725,65.831H89.362c-0.613,0-1.11-0.498-1.11-1.111s0.497-1.111,1.11-1.111h15.363
			c0.613,0,1.111,0.498,1.111,1.111S105.338,65.831,104.725,65.831z"/>
	</g>
	<g>
		<path fill="#FFFFFF" d="M98.12,69.534h-8.758c-0.613,0-1.11-0.498-1.11-1.111s0.497-1.111,1.11-1.111h8.758
			c0.613,0,1.111,0.498,1.111,1.111S98.733,69.534,98.12,69.534z"/>
	</g>
</g>
<g>
	<g>
		<path fill="#FFFFFF" d="M140.548,74.973h-14.621c-3.818,0-6.926-3.107-6.926-6.928V53.096c0-3.82,3.107-6.928,6.926-6.928h14.621
			c3.818,0,6.928,3.107,6.928,6.928v14.951C147.476,71.866,144.369,74.973,140.548,74.973z M125.927,48.391
			c-2.594,0-4.703,2.111-4.703,4.705v14.951c0,2.594,2.109,4.705,4.703,4.705h14.621c2.594,0,4.705-2.111,4.705-4.705V53.096
			c0-2.594-2.111-4.705-4.705-4.705H125.927z"/>
	</g>
	<g>
		<path fill="#FFFFFF" d="M133.486,62.127h-5.672c-1.857,0-3.367-1.51-3.367-3.367V53.7c0-1.857,1.51-3.367,3.367-3.367h3.621
			c0.613,0,1.111,0.498,1.111,1.111s-0.498,1.111-1.111,1.111h-3.621c-0.633,0-1.146,0.514-1.146,1.145v5.061
			c0,0.633,0.514,1.146,1.146,1.146h5.672c0.633,0,1.145-0.514,1.145-1.146v-2.818c0-0.613,0.498-1.111,1.111-1.111
			s1.111,0.498,1.111,1.111v2.818C136.853,60.618,135.343,62.127,133.486,62.127z"/>
	</g>
	<g>
		<path fill="#FFFFFF" d="M130.791,58.797c-0.326,0-0.65-0.143-0.871-0.418l-1.854-2.33c-0.381-0.48-0.301-1.18,0.178-1.561
			c0.48-0.383,1.182-0.303,1.561,0.178l1.854,2.33c0.383,0.479,0.303,1.178-0.178,1.561
			C131.277,58.719,131.033,58.797,130.791,58.797z"/>
	</g>
	<g>
		<path fill="#FFFFFF" d="M130.789,58.797c-0.139,0-0.279-0.025-0.416-0.08c-0.568-0.23-0.844-0.879-0.613-1.447
			c0.074-0.182,1.852-4.49,5.76-7.297c0.498-0.357,1.191-0.246,1.551,0.254c0.357,0.498,0.244,1.191-0.254,1.551
			c-3.391,2.436-4.98,6.289-4.996,6.326C131.644,58.536,131.228,58.797,130.789,58.797z"/>
	</g>
	<g>
		<path fill="#FFFFFF" d="M140.919,65.831h-15.363c-0.613,0-1.109-0.498-1.109-1.111s0.496-1.111,1.109-1.111h15.363
			c0.613,0,1.111,0.498,1.111,1.111S141.533,65.831,140.919,65.831z"/>
	</g>
	<g>
		<path fill="#FFFFFF" d="M134.314,69.534h-8.758c-0.613,0-1.109-0.498-1.109-1.111s0.496-1.111,1.109-1.111h8.758
			c0.613,0,1.111,0.498,1.111,1.111S134.927,69.534,134.314,69.534z"/>
	</g>
	<g>
		<path fill="#FFFFFF" d="M140.548,36.568h-14.621c-3.818,0-6.926-3.107-6.926-6.928V14.691c0-3.819,3.107-6.928,6.926-6.928h14.621
			c3.818,0,6.928,3.107,6.928,6.928v14.951C147.476,33.461,144.369,36.568,140.548,36.568z M125.927,9.986
			c-2.594,0-4.703,2.111-4.703,4.705v14.951c0,2.594,2.109,4.705,4.703,4.705h14.621c2.594,0,4.705-2.111,4.705-4.705V14.691
			c0-2.594-2.111-4.705-4.705-4.705H125.927z"/>
	</g>
	<g>
		<path fill="#FFFFFF" d="M133.486,23.723h-5.672c-1.857,0-3.367-1.51-3.367-3.367v-5.061c0-1.856,1.51-3.367,3.367-3.367h3.621
			c0.613,0,1.111,0.498,1.111,1.111s-0.498,1.111-1.111,1.111h-3.621c-0.633,0-1.146,0.514-1.146,1.145v5.061
			c0,0.633,0.514,1.146,1.146,1.146h5.672c0.633,0,1.145-0.514,1.145-1.146v-2.818c0-0.613,0.498-1.111,1.111-1.111
			s1.111,0.498,1.111,1.111v2.818C136.853,22.213,135.343,23.723,133.486,23.723z"/>
	</g>
	<g>
		<path fill="#FFFFFF" d="M130.791,20.393c-0.326,0-0.65-0.143-0.871-0.418l-1.854-2.33c-0.381-0.48-0.301-1.18,0.178-1.561
			c0.48-0.382,1.182-0.303,1.561,0.178l1.854,2.33c0.383,0.479,0.303,1.178-0.178,1.561
			C131.277,20.314,131.033,20.393,130.791,20.393z"/>
	</g>
	<g>
		<path fill="#FFFFFF" d="M130.789,20.393c-0.139,0-0.279-0.025-0.416-0.08c-0.568-0.23-0.844-0.879-0.613-1.447
			c0.074-0.182,1.852-4.49,5.76-7.297c0.498-0.357,1.191-0.246,1.551,0.254c0.357,0.498,0.244,1.192-0.254,1.551
			c-3.391,2.436-4.98,6.289-4.996,6.326C131.644,20.131,131.228,20.393,130.789,20.393z"/>
	</g>
	<g>
		<path fill="#FFFFFF" d="M140.919,27.426h-15.363c-0.613,0-1.109-0.498-1.109-1.111s0.496-1.111,1.109-1.111h15.363
			c0.613,0,1.111,0.498,1.111,1.111S141.533,27.426,140.919,27.426z"/>
	</g>
	<g>
		<path fill="#FFFFFF" d="M134.314,31.129h-8.758c-0.613,0-1.109-0.498-1.109-1.111s0.496-1.111,1.109-1.111h8.758
			c0.613,0,1.111,0.498,1.111,1.111S134.927,31.129,134.314,31.129z"/>
	</g>
</g>
<g>
	<g>
		<path fill="#FFFFFF" d="M176.744,36.568h-14.621c-3.818,0-6.926-3.107-6.926-6.928V14.691c0-3.819,3.106-6.928,6.926-6.928h14.621
			c3.818,0,6.927,3.107,6.927,6.928v14.951C183.67,33.461,180.563,36.568,176.744,36.568z M162.123,9.986
			c-2.594,0-4.704,2.111-4.704,4.705v14.951c0,2.594,2.11,4.705,4.704,4.705h14.621c2.594,0,4.705-2.111,4.705-4.705V14.691
			c0-2.594-2.111-4.705-4.705-4.705H162.123z"/>
	</g>
	<g>
		<path fill="#FFFFFF" d="M169.681,23.723h-5.673c-1.856,0-3.367-1.51-3.367-3.367v-5.061c0-1.856,1.511-3.367,3.367-3.367h3.622
			c0.613,0,1.111,0.498,1.111,1.111s-0.498,1.111-1.111,1.111h-3.622c-0.632,0-1.146,0.514-1.146,1.145v5.061
			c0,0.633,0.514,1.146,1.146,1.146h5.673c0.632,0,1.145-0.514,1.145-1.146v-2.818c0-0.613,0.498-1.111,1.111-1.111
			s1.111,0.498,1.111,1.111v2.818C173.048,22.213,171.539,23.723,169.681,23.723z"/>
	</g>
	<g>
		<path fill="#FFFFFF" d="M166.986,20.393c-0.327,0-0.651-0.143-0.871-0.418l-1.854-2.33c-0.382-0.48-0.302-1.18,0.178-1.561
			c0.48-0.382,1.181-0.303,1.561,0.178l1.854,2.33c0.383,0.479,0.303,1.178-0.178,1.561
			C167.472,20.314,167.228,20.393,166.986,20.393z"/>
	</g>
	<g>
		<path fill="#FFFFFF" d="M166.984,20.393c-0.139,0-0.279-0.025-0.416-0.08c-0.569-0.23-0.844-0.879-0.613-1.447
			c0.074-0.182,1.852-4.49,5.76-7.297c0.498-0.357,1.191-0.246,1.551,0.254c0.357,0.498,0.244,1.192-0.254,1.551
			c-3.392,2.436-4.981,6.289-4.996,6.326C167.839,20.131,167.422,20.393,166.984,20.393z"/>
	</g>
	<g>
		<path fill="#FFFFFF" d="M177.115,27.426h-15.363c-0.613,0-1.11-0.498-1.11-1.111s0.497-1.111,1.11-1.111h15.363
			c0.613,0,1.111,0.498,1.111,1.111S177.728,27.426,177.115,27.426z"/>
	</g>
	<g>
		<path fill="#FFFFFF" d="M170.509,31.129h-8.758c-0.613,0-1.11-0.498-1.11-1.111s0.497-1.111,1.11-1.111h8.758
			c0.613,0,1.111,0.498,1.111,1.111S171.123,31.129,170.509,31.129z"/>
	</g>
	<g>
		<path fill="#FFFFFF" d="M176.744,74.973h-14.621c-3.818,0-6.926-3.107-6.926-6.928V53.096c0-3.82,3.106-6.928,6.926-6.928h14.621
			c3.818,0,6.927,3.107,6.927,6.928v14.951C183.67,71.866,180.563,74.973,176.744,74.973z M162.123,48.391
			c-2.594,0-4.704,2.111-4.704,4.705v14.951c0,2.594,2.11,4.705,4.704,4.705h14.621c2.594,0,4.705-2.111,4.705-4.705V53.096
			c0-2.594-2.111-4.705-4.705-4.705H162.123z"/>
	</g>
	<g>
		<path fill="#FFFFFF" d="M169.681,62.127h-5.673c-1.856,0-3.367-1.51-3.367-3.367V53.7c0-1.857,1.511-3.367,3.367-3.367h3.622
			c0.613,0,1.111,0.498,1.111,1.111s-0.498,1.111-1.111,1.111h-3.622c-0.632,0-1.146,0.514-1.146,1.145v5.061
			c0,0.633,0.514,1.146,1.146,1.146h5.673c0.632,0,1.145-0.514,1.145-1.146v-2.818c0-0.613,0.498-1.111,1.111-1.111
			s1.111,0.498,1.111,1.111v2.818C173.048,60.618,171.539,62.127,169.681,62.127z"/>
	</g>
	<g>
		<path fill="#FFFFFF" d="M166.986,58.797c-0.327,0-0.651-0.143-0.871-0.418l-1.854-2.33c-0.382-0.48-0.302-1.18,0.178-1.561
			c0.48-0.383,1.181-0.303,1.561,0.178l1.854,2.33c0.383,0.479,0.303,1.178-0.178,1.561
			C167.472,58.719,167.228,58.797,166.986,58.797z"/>
	</g>
	<g>
		<path fill="#FFFFFF" d="M166.984,58.797c-0.139,0-0.279-0.025-0.416-0.08c-0.569-0.23-0.844-0.879-0.613-1.447
			c0.074-0.182,1.852-4.49,5.76-7.297c0.498-0.357,1.191-0.246,1.551,0.254c0.357,0.498,0.244,1.191-0.254,1.551
			c-3.392,2.436-4.981,6.289-4.996,6.326C167.839,58.536,167.422,58.797,166.984,58.797z"/>
	</g>
	<g>
		<path fill="#FFFFFF" d="M177.115,65.831h-15.363c-0.613,0-1.11-0.498-1.11-1.111s0.497-1.111,1.11-1.111h15.363
			c0.613,0,1.111,0.498,1.111,1.111S177.728,65.831,177.115,65.831z"/>
	</g>
	<g>
		<path fill="#FFFFFF" d="M170.509,69.534h-8.758c-0.613,0-1.11-0.498-1.11-1.111s0.497-1.111,1.11-1.111h8.758
			c0.613,0,1.111,0.498,1.111,1.111S171.123,69.534,170.509,69.534z"/>
	</g>
</g>
</svg>
